<?xml version="1.0" encoding="UTF-8" standalone="no"?>
<!-- Created with Inkscape (http://www.inkscape.org/) -->

<svg
   xmlns:dc="http://purl.org/dc/elements/1.1/"
   xmlns:cc="http://creativecommons.org/ns#"
   xmlns:rdf="http://www.w3.org/1999/02/22-rdf-syntax-ns#"
   xmlns:svg="http://www.w3.org/2000/svg"
   xmlns="http://www.w3.org/2000/svg"
   xmlns:sodipodi="http://sodipodi.sourceforge.net/DTD/sodipodi-0.dtd"
   xmlns:inkscape="http://www.inkscape.org/namespaces/inkscape"
   width="210mm"
   height="297mm"
   viewBox="0 0 744.09448819 1052.3622047"
   id="svg4761"
   version="1.1"
   inkscape:version="0.91 r13725"
   sodipodi:docname="GLClogo_outlined.svg">
  <defs
     id="defs4763" />
  <sodipodi:namedview
     id="base"
     pagecolor="#ffffff"
     bordercolor="#666666"
     borderopacity="1.0"
     inkscape:pageopacity="0.0"
     inkscape:pageshadow="2"
     inkscape:zoom="0.7"
     inkscape:cx="423.06569"
     inkscape:cy="653.48637"
     inkscape:document-units="px"
     inkscape:current-layer="g3534"
     showgrid="false"
     inkscape:window-width="1611"
     inkscape:window-height="1001"
     inkscape:window-x="83"
     inkscape:window-y="0"
     inkscape:window-maximized="0"
     showguides="true" />
  <metadata
     id="metadata4766">
    <rdf:RDF>
      <cc:Work
         rdf:about="">
        <dc:format>image/svg+xml</dc:format>
        <dc:type
           rdf:resource="http://purl.org/dc/dcmitype/StillImage" />
        <dc:title></dc:title>
      </cc:Work>
    </rdf:RDF>
  </metadata>
  <g
     inkscape:label="Layer 1"
     inkscape:groupmode="layer"
     id="layer1">
    <g
       id="g4876"
       transform="translate(-927.99712,-798.44527)"
       style="stroke-width:11;stroke-miterlimit:4;stroke-dasharray:none">
      <path
         sodipodi:nodetypes="csssssc"
         inkscape:connector-curvature="0"
         id="path4936"
         d="m 1021.0211,584.19078 c -30.00003,-4.2857 -55.62098,13.7884 -71.7158,31.9187 -23.00313,25.9123 -7.0763,83.4078 30.20305,98.0096 78.32415,30.6783 112.75965,41.4283 221.05225,48.2248 112.1936,7.0414 224.2344,-12.8199 274.9913,-31.6019 24.1745,-8.9455 75.7636,-28.9566 80.5917,-75.7143 6.0095,-58.199 -70.8368,-66.5511 -70.8368,-66.5511"
         style="fill:none;fill-rule:evenodd;stroke:none;stroke-width:15;stroke-linecap:butt;stroke-linejoin:miter;stroke-miterlimit:4;stroke-dasharray:none;stroke-opacity:1" />
      <path
         style="fill:none;fill-rule:evenodd;stroke:none;stroke-width:15;stroke-linecap:butt;stroke-linejoin:miter;stroke-miterlimit:4;stroke-dasharray:none;stroke-opacity:1"
         d="m 1841.0211,567.04792 c -30,-4.2857 -55.621,13.7884 -71.7158,31.9187 -23.0031,25.9123 -7.0763,83.4078 30.2031,98.0096 78.3241,30.6783 112.7596,41.4283 221.0522,48.2248 112.1936,7.0414 224.2344,-12.8199 274.9913,-31.6019 24.1745,-8.9455 75.7636,-28.9566 80.5917,-75.7143 6.0095,-58.199 -70.8368,-66.5511 -70.8368,-66.5511"
         id="path3464"
         inkscape:connector-curvature="0"
         sodipodi:nodetypes="csssssc" />
      <g
         transform="matrix(0.99928358,0.03784591,-0.03784591,0.99928358,10.366161,565.83238)"
         style="font-style:normal;font-variant:normal;font-weight:normal;font-stretch:normal;font-size:40px;line-height:125%;font-family:sans-serif;-inkscape-font-specification:'sans-serif, Normal';text-align:start;letter-spacing:0px;word-spacing:0px;writing-mode:lr-tb;text-anchor:start;fill:#000000;fill-opacity:1;stroke:none;stroke-width:1px;stroke-linecap:butt;stroke-linejoin:miter;stroke-opacity:1"
         id="text3466">
        <g
           id="g3534">
          <path
             style="color:#000000;font-style:normal;font-variant:normal;font-weight:normal;font-stretch:normal;font-size:medium;line-height:normal;font-family:sans-serif;text-indent:0;text-align:start;text-decoration:none;text-decoration-line:none;text-decoration-style:solid;text-decoration-color:#000000;letter-spacing:normal;word-spacing:normal;text-transform:none;direction:ltr;block-progression:tb;writing-mode:lr-tb;baseline-shift:baseline;text-anchor:start;white-space:normal;clip-rule:nonzero;display:inline;overflow:visible;visibility:visible;opacity:1;isolation:auto;mix-blend-mode:normal;color-interpolation:sRGB;color-interpolation-filters:linearRGB;solid-color:#000000;solid-opacity:1;fill:#000000;fill-opacity:1;fill-rule:evenodd;stroke:none;stroke-width:15;stroke-linecap:butt;stroke-linejoin:miter;stroke-miterlimit:4;stroke-dasharray:none;stroke-dashoffset:0;stroke-opacity:1;color-rendering:auto;image-rendering:auto;shape-rendering:auto;text-rendering:auto;enable-background:accumulate"
             d="M 410.82812 5.8847656 C 409.75663 5.8986378 408.68647 5.9474231 407.62305 6.0253906 L 407.62891 6.0234375 C 404.79301 6.2313475 401.99825 6.6559425 399.31445 7.2265625 L 397.78125 7.5507812 L 396.50586 8.4648438 C 387.69706 14.775114 382.772 21.540436 380.9668 28.285156 C 379.36 34.288896 380.39318 39.620709 381.64258 43.537109 L 381.625 43.539062 C 364.8467 45.144992 353.74082 53.363346 348.32422 63.572266 C 343.38922 72.873376 342.59778 82.968749 342.48828 91.605469 C 335.56238 100.45218 331.62335 109.12309 329.06055 114.92773 C 297.34765 77.776955 258.12735 70.703238 234.12305 69.929688 L 234.02148 69.925781 L 233.91992 69.925781 C 201.48712 69.746651 170.60173 79.004255 140.83203 115.73438 C 139.27023 115.52872 137.85889 115.369 134.52539 114.76562 C 129.77239 113.90533 123.75004 112.92424 116.93164 112.83789 C 103.29504 112.66519 86.222985 116.44897 70.617188 131.11523 L 70.607422 131.12305 L 70.597656 131.13086 C 57.380456 143.62813 53.174791 162.10586 53.212891 179.38477 C 53.250891 196.59043 57.312553 212.87859 63.501953 223.74219 C 73.274153 242.43959 94.907667 249.66564 111.73047 254.33984 C 118.07847 256.10364 122.5968 257.22901 126.8418 258.38281 C 113.1231 269.94841 99.563791 283.87816 88.962891 296.41406 C 82.680191 303.84356 77.463219 310.68858 73.824219 316.33398 C 72.004719 319.15668 70.576375 321.64003 69.546875 324.08203 C 69.032075 325.30303 68.59805 326.50287 68.34375 328.00977 C 68.08945 329.51677 67.826772 331.57592 69.201172 334.19922 L 70.001953 335.72656 L 71.390625 336.75195 C 81.703925 344.36525 95.792602 349.96684 107.87109 354.58594 C 113.91039 356.89544 119.4346 358.91645 123.4668 360.56445 C 125.3292 361.32565 126.76708 361.98306 127.79688 362.50586 C 128.20815 364.49946 128.2035 366.8041 127.3418 370.4043 C 126.3685 374.4711 124.4023 380.05899 122.4668 386.30859 C 118.1932 390.55309 114.74002 392.72242 110.44922 395.73242 C 105.76032 399.02162 100.39495 403.59923 94.84375 412.05273 L 94.490234 412.58984 L 94.279297 413.07422 C 92.718005 413.02005 91.165734 413.00132 89.632812 413.04883 C 61.627114 413.91663 38.478009 431.27116 23.537109 448.10156 C 9.6367098 463.75996 8.1500718 487.21788 14.451172 508.45898 C 20.752272 529.70018 35.198681 549.68447 56.613281 558.07227 C 135.07848 588.80587 171.24484 599.97753 279.93164 606.79883 C 393.31674 613.91503 505.48419 594.17759 557.99609 574.74609 C 570.16199 570.24429 589.7778 562.82926 607.3418 550.10938 C 624.9059 537.38948 640.76211 518.75248 643.44531 492.76758 C 645.11731 476.57518 640.87896 463.01768 633.56836 452.70898 C 626.25776 442.40028 616.17664 435.26348 606.21094 430.20898 C 589.32308 421.64368 572.28892 418.84783 567.43945 418.18555 C 559.13924 386.83937 558.59209 355.056 553.08008 318.73828 C 553.12008 318.72228 553.10144 318.72698 553.14844 318.70898 C 554.68154 318.12448 559.09078 317.47913 564.48828 316.11133 C 575.27258 313.37853 590.13127 305.72321 599.44727 283.82031 C 609.70617 260.92701 610.99823 232.18607 609.74023 206.71484 C 608.48083 181.21325 604.41914 158.87907 602.83984 149.99609 L 602.89062 150.32227 C 601.68705 141.25197 595.55917 134.18993 587.98047 128.95898 C 580.40167 123.72803 570.9776 119.94376 560.8418 117.32812 C 543.8907 112.95375 525.12023 111.7439 509.54883 115.26367 C 508.65533 110.81053 507.27509 105.25629 504.92969 99.371094 C 500.27459 87.690394 491.37873 74.251426 475.92383 69.378906 C 473.89453 61.861896 470.73964 56.082109 466.58984 52.074219 C 461.59604 47.251259 455.592 45.230586 450.5957 44.447266 C 447.4412 43.952706 444.81622 43.852451 442.60352 43.800781 C 443.92012 37.696361 444.02551 32.186766 442.88281 27.228516 C 441.34761 20.567286 437.35832 15.175146 432.41992 11.791016 C 425.93836 7.3493573 418.32874 5.7876603 410.82812 5.8847656 z M 410.80273 21.054688 C 416.09019 21.079448 421.01838 22.154991 423.94727 24.162109 C 426.17887 25.691349 427.54364 27.42701 428.27344 30.59375 C 429.00324 33.76049 428.88154 38.639666 426.58594 45.597656 L 426.14062 46.949219 L 426.2207 48.369141 C 426.3983 51.531071 428.82064 55.378058 431.43164 56.861328 C 434.04264 58.344588 436.13997 58.486555 438.01367 58.640625 C 441.76107 58.948755 445.16014 58.776905 448.27734 59.265625 C 451.39454 59.754335 453.88368 60.647578 456.17578 62.861328 C 457.56207 64.200174 458.99327 66.185046 460.23047 69.257812 C 424.08313 74.912173 381.36585 71.610777 362.14648 69.589844 C 365.45082 63.926741 370.63623 59.81678 382.5625 58.5625 C 385.3424 58.89843 387.65349 59.072492 390.05469 58.732422 C 391.43579 58.536842 392.9821 58.182302 394.6582 57.107422 C 396.3344 56.032552 397.92797 53.973866 398.51367 52.009766 C 399.68507 48.081556 398.51362 45.977532 397.91992 44.320312 C 397.32372 42.663105 396.70724 41.294831 396.21484 39.925781 C 395.23004 37.187691 394.73444 34.876349 395.46094 32.162109 C 396.13334 29.649749 398.19095 26.133452 403.95312 21.701172 C 405.46644 21.444349 406.98844 21.189045 408.51953 21.109375 C 409.28477 21.069706 410.04738 21.051148 410.80273 21.054688 z M 468.98242 82.960938 C 480.36321 85.24814 486.90046 94.635029 491 104.92188 C 495.1697 115.3845 496.00391 125.40625 496.00391 125.40625 L 496.79102 135.45703 L 506.19141 131.81445 C 517.96111 127.2541 539.36431 127.2748 557.09961 131.85156 C 565.96721 134.13995 573.96284 137.50522 579.46484 141.30273 C 584.96674 145.10025 587.58109 148.94666 588.02539 152.29492 L 588.04883 152.45703 L 588.07617 152.62109 C 589.67017 161.58653 593.56137 183.108 594.76367 207.45312 C 595.96607 231.79825 594.23148 258.85386 585.73828 277.75586 L 585.70508 277.82812 L 585.67383 277.90039 C 577.91413 296.18969 569.27005 299.42466 560.81055 301.56836 C 556.58085 302.64016 552.43085 302.92991 547.81055 304.69141 C 545.50035 305.57211 542.86157 307.03156 540.88477 309.63086 C 538.90797 312.23016 538.0332 315.61337 538.0332 318.79297 L 538.0332 319.36719 L 538.11914 319.93555 C 543.84823 357.08046 543.96424 391.062 554.20117 426.57617 C 559.07437 444.76524 561.37726 455.80745 559.45898 461.07812 C 558.49948 463.71442 556.79532 465.90575 552.16602 468.62695 C 547.54632 471.34245 540.13352 474.1593 529.54492 477 C 473.04222 490.6274 414.67944 502.33997 359.14844 487.69727 L 358.86133 487.62305 L 358.57031 487.57031 C 331.60811 482.69501 292.39613 470.78047 275.11133 464.57617 L 274.82031 464.4707 L 274.51953 464.39062 C 273.08493 464.00625 272.86621 463.69876 272.69141 463.47656 C 272.51651 463.25436 272.21018 462.74437 272.08008 461.26367 C 271.81998 458.30227 272.89088 452.18397 275.08398 444.57227 C 279.40788 429.56547 287.30958 408.46084 290.39648 384.39844 C 306.35074 342.30085 303.87814 319.4304 313.56641 275.54297 C 313.53269 275.66117 313.50285 275.78472 313.46875 275.90234 L 313.58984 275.43359 C 313.58154 275.47117 313.57469 275.50543 313.56641 275.54297 C 317.50919 261.72006 318.80186 244.01308 317.7207 226.72461 C 316.6302 209.28819 313.32332 192.48866 306.19922 180.46875 C 295.25252 158.97764 278.70091 132.35061 256.28711 121.56445 C 237.70901 108.74765 212.84269 109.54244 193.99219 113.85156 C 184.48079 116.02584 176.53825 119.02248 170.84375 122.95117 C 167.99655 124.91552 165.2448 126.94035 163.9707 131.4043 C 163.3336 133.63627 163.52673 136.64902 164.74023 138.93164 C 165.95363 141.21427 167.75423 142.64023 169.49023 143.62109 C 173.60633 145.94682 182.99908 150.48378 192.26758 155.7793 C 196.90188 158.42706 201.4031 161.21605 204.75 163.68555 C 206.1756 164.7374 207.21084 165.75681 208.08594 166.62891 C 207.10034 168.9463 205.758 171.94922 204.2793 174.78516 C 203.1191 177.01039 202.00524 178.6053 201.02734 179.95898 C 194.85924 176.22845 184.27062 170.27407 171.14062 165.8125 C 163.42775 163.19165 155.24347 161.23586 147.13867 161.25195 C 139.08327 161.26795 130.71648 163.46264 124.48828 169.57422 C 107.60188 184.88105 107.10051 207.69628 117.62891 222.20312 C 122.91091 229.48112 131.10703 234.825 140.83203 235.875 C 150.55703 236.9249 161.37703 233.63561 171.83203 225.53711 L 180.71875 218.6543 L 170.95117 213.0918 C 167.65907 211.21664 164.54239 209.76529 162.24609 208.52148 C 160.69809 207.68294 160.40095 207.36457 159.87695 206.95898 C 160.22815 206.4795 160.61795 206.01652 161.40625 205.18555 C 170.69215 211.75246 192.18728 226.3122 210.48828 234.4668 C 210.50728 237.3743 210.06269 239.50599 209.55469 241.46289 C 206.75969 239.40669 204.87962 238.04855 201.51562 235.71875 C 198.55295 233.66695 195.93158 231.59604 191.27148 230.99414 C 188.94148 230.69314 185.43832 231.22892 182.97852 233.44922 C 180.51862 235.66952 179.69067 238.48568 179.38867 240.89648 C 178.23697 250.09108 169.62951 266.89673 158.00781 283.24023 C 146.38601 299.58373 131.96682 316.03871 120.16602 327.31641 L 112.93164 334.23047 L 121.59766 339.23438 C 130.82386 344.56115 142.87436 347.33438 154.50586 349.95898 C 162.43396 351.74798 170.08446 353.4631 175.91406 355.125 C 174.55986 356.1537 173.06921 357.19737 171.66211 358.00977 L 171.34375 358.19336 L 171.04492 358.4082 C 165.59412 362.3116 162.81308 360.90912 157.45898 359.38672 C 154.64278 358.58582 150.95894 359.53718 148.99414 361.08008 C 147.02934 362.62308 146.15494 364.23757 145.46094 365.70117 C 144.07284 368.62847 143.51523 371.44523 143.04883 374.24023 C 142.11603 379.83023 141.97461 385.25586 141.97461 385.25586 L 141.7168 393.79102 L 150.21289 392.94727 C 154.30649 392.54077 164.71399 393.02224 174.61719 394.90234 C 182.33529 396.36734 189.91694 398.92156 194.65234 401.47266 C 194.29914 403.43936 193.81635 405.41703 193.60938 407.20703 C 186.54918 402.47783 178.44338 400.36436 170.89258 400.38086 C 159.83258 400.40486 149.41909 404.14345 143.42969 412.34375 L 143.41602 412.36328 L 143.40039 412.38281 C 130.92239 429.70321 130.5144 447.82089 140.2168 458.21289 C 145.0681 463.40899 152.37366 466.07721 159.84766 465.28711 C 166.28776 464.60621 172.74603 461.4448 178.80273 456.2168 C 179.60643 456.346 180.27155 456.43248 180.81445 456.58008 C 180.55495 457.95148 180.40135 459.00687 179.71875 461.63477 C 178.69435 465.57867 177.28749 470.38176 175.74609 474.97656 C 174.20479 479.57146 172.50052 483.99735 171.04492 487.00195 C 170.92082 487.25805 170.86659 487.299 170.74609 487.5332 C 160.18819 483.604 148.04473 481.55448 131.08203 480.58008 C 114.10733 474.76948 106.81809 465.53522 103.87109 454.76172 C 100.92689 443.99822 102.98573 431.05208 107.80273 419.70508 C 112.16183 413.20638 115.21361 410.71907 119.07031 408.01367 C 123.05601 405.21767 128.35818 402.0931 134.48828 395.625 L 135.71875 394.32422 L 136.23047 392.60938 C 138.25827 385.81548 140.50695 379.86558 141.93555 373.89648 C 143.36415 367.92748 143.96612 361.4786 141.41602 355.1875 L 141.0332 354.24219 L 140.41016 353.43359 C 138.44256 350.87479 136.89501 350.30931 135.12891 349.38281 C 133.36281 348.45631 131.38944 347.59569 129.14844 346.67969 C 124.66634 344.84789 119.14225 342.83547 113.23438 340.57617 C 103.36368 336.80137 92.582034 332.20812 84.740234 327.48242 C 85.280434 326.49182 85.5846 325.78394 86.4375 324.46094 C 89.5139 319.68834 94.438765 313.17481 100.42188 306.09961 C 112.38805 291.94911 128.7024 275.39552 143.5918 263.98242 L 144.02148 263.6543 L 144.39844 263.26758 C 145.69954 261.93428 147.21893 259.81587 147.36523 256.82227 C 147.51143 253.82867 145.91502 251.13369 144.51172 249.74219 C 141.70512 246.95919 139.3194 246.39756 136.5293 245.47266 C 130.9492 243.62296 123.68645 242.09122 115.75195 239.88672 C 99.882959 235.47752 82.734241 228.27819 76.744141 216.71289 L 76.669922 216.57031 L 76.589844 216.42969 C 72.366844 209.07079 68.25125 194.08931 68.21875 179.35156 C 68.18675 164.62266 72.039878 150.42806 80.892578 142.04492 L 80.902344 142.03906 C 93.593544 130.1149 105.78405 127.69708 116.74805 127.83594 C 122.23095 127.90534 127.34438 128.70815 131.85938 129.52539 C 136.37435 130.34263 139.90238 131.37311 144.36328 131.12305 L 147.78711 130.92969 L 149.88281 128.21484 C 178.29211 91.383132 202.89504 84.772174 233.74414 84.927734 C 256.74974 85.682894 293.13362 91.886084 322.41602 130.52344 L 322.92578 131.19727 L 323.57422 131.73828 C 325.24822 133.14287 328.25479 134.6389 331.49219 134.13086 C 334.72969 133.62282 336.69428 131.69346 337.86328 130.25 C 340.20138 127.36309 341.09971 124.75575 342.50781 121.57031 C 345.32391 115.19944 348.93696 106.96692 355.66406 99.005859 L 357.43555 96.908203 L 357.43555 94.164062 C 357.43555 90.880123 357.5668 87.522845 357.91797 84.271484 C 377.17014 86.510535 426.98873 90.936265 468.98242 82.960938 z M 217.21484 126.22656 C 228.67514 126.20326 240.13395 128.45239 248.14258 134.12109 L 248.69727 134.51367 L 249.31445 134.80078 C 265.21845 142.19203 282.65993 167.21361 293.05273 187.6875 L 293.16406 187.9043 L 293.28906 188.11523 C 298.14246 196.30399 301.74484 211.68056 302.74414 227.66016 C 303.74354 243.63976 302.33204 260.42691 299.05664 271.72461 L 298.99023 271.95898 L 298.9375 272.19531 C 288.8123 318.00131 291.58258 339.34008 276.11328 379.80078 L 275.78516 380.66016 L 275.67383 381.57227 C 274.76787 389.00071 273.31162 396.20463 271.60742 403.11914 C 261.12702 402.03573 251.60828 401.50216 243.19531 401.33008 C 228.23766 401.02418 216.88604 401.83921 209.51172 402.64648 C 209.69938 401.72581 209.90196 400.82031 210.14062 399.96094 L 211.4082 395.39648 L 207.83203 392.29102 C 199.88603 385.39062 188.55976 382.28242 177.41016 380.16602 C 170.30786 378.81782 163.57086 378.09987 157.72266 377.88867 C 157.79766 377.32857 157.74569 377.26434 157.83789 376.71094 C 157.97159 375.90994 158.11165 375.66531 158.28125 374.97461 C 164.02425 375.98551 172.01463 376.05832 179.61133 370.69922 C 183.68623 368.30352 187.7529 365.37098 190.9043 361.76758 C 192.5398 359.89758 194.21366 357.96036 194.78516 354.28906 C 195.07086 352.45346 194.83117 349.98221 193.63477 347.91211 C 192.43797 345.84201 190.56928 344.49173 188.89648 343.74023 C 180.50188 339.96883 169.20433 337.90092 157.80273 335.32812 C 150.90613 333.77185 144.17575 332.01009 138.49805 330.11719 C 149.11775 319.07349 160.46366 305.66309 170.22656 291.93359 C 181.00256 276.77939 189.95663 261.82887 193.23633 248.25977 C 197.83133 251.50117 203.11785 256.80533 209.81055 259.64453 L 214.91016 261.80664 L 218.47852 257.57031 C 218.47852 257.57031 221.09259 254.33989 222.92969 249.43359 C 224.76679 244.52739 226.20579 237.41281 225.12109 228.56641 L 224.57812 224.13867 L 220.42773 222.50195 C 200.30843 214.56805 165.2168 189.4707 165.2168 189.4707 L 160.56445 186.0918 L 156.09375 189.70508 C 151.06585 193.76868 147.68841 197.13078 145.62891 201.36719 C 143.56941 205.6036 144.11384 211.65516 146.64844 215.09766 C 148.22874 217.24396 150.00505 218.59475 151.81445 219.74805 C 148.31525 220.94345 145.176 221.25664 142.4375 220.96094 C 137.1256 220.38744 132.83957 217.63088 129.76367 213.39258 C 123.61187 204.91619 122.8723 191.1487 134.6543 180.57422 L 134.79492 180.44727 L 134.92969 180.3125 C 137.70919 177.55177 141.59491 176.26301 147.16211 176.25195 C 152.72931 176.24095 159.57529 177.72568 166.30859 180.01367 C 179.77529 184.58966 192.85817 192.27563 196.75977 194.77734 C 199.64507 196.62748 203.89106 196.44072 206.28516 195.33594 C 208.67926 194.23115 210.07661 192.79723 211.34961 191.35156 C 213.89571 188.46023 215.80372 185.11444 217.57422 181.71875 C 221.11532 174.92737 223.74609 167.93359 223.74609 167.93359 L 224.83984 165.04492 L 223.58203 162.22461 C 221.35183 157.21918 217.79174 154.67228 213.64844 151.61523 C 209.50524 148.55819 204.62342 145.56703 199.70312 142.75586 C 192.36365 138.5625 187.16117 135.98498 182.66797 133.66211 C 186.21297 131.87428 191.08488 129.90223 197.33008 128.47461 C 203.4614 127.07301 210.33867 126.24054 217.21484 126.22656 z M 548.84961 149.13672 C 536.69467 148.98023 526.65582 155.42378 524.44727 165.63281 L 524.30469 166.28516 L 524.2793 166.95117 C 523.86377 178.66259 525.42523 202.66424 526.07227 211.40039 L 526.08984 211.62695 L 526.12109 211.85352 C 527.68408 223.37742 529.66075 237.04072 531.65625 248.47461 C 532.6539 254.19151 533.65136 259.3387 534.64062 263.49609 C 535.13531 265.57489 535.62226 267.40125 536.1582 269.02734 C 536.69405 270.65344 537.02215 271.93868 538.45898 273.89648 L 538.75391 274.29688 L 539.09766 274.6543 C 542.56466 278.2632 546.38483 279.04977 550.46094 279.50977 C 554.53725 279.96977 558.9833 279.65083 563.41992 278.20703 L 564.69336 277.79297 L 565.74414 276.96289 C 570.40653 273.28339 577.91758 269.35412 582.42773 259.20703 L 582.85938 258.23633 L 583.00391 257.18359 C 585.6638 237.84769 583.53718 219.57645 584.48047 199.76953 L 584.48828 199.56445 L 584.48633 199.35742 C 584.4389 193.01324 584.66748 182.57253 582.17383 174.31445 C 578.9996 161.06553 568.26673 149.84464 553.58398 149.5293 C 553.78077 149.55872 553.97641 149.58436 554.17383 149.61719 L 552.93945 149.51562 C 553.15631 149.51553 553.36882 149.52468 553.58398 149.5293 C 551.98213 149.28978 550.4006 149.15714 548.85547 149.13672 L 548.84961 149.13672 z M 548.85547 164.19922 C 549.75177 164.18193 550.7063 164.2457 551.71875 164.41406 L 552.33008 164.51562 L 552.95117 164.51562 C 560.98216 164.51216 565.6832 169.41561 567.6543 177.98242 L 567.7168 178.25391 L 567.79883 178.51758 C 568.90808 182.10438 569.44464 193.15489 569.49219 199.45898 C 569.49227 199.46199 569.4922 199.46575 569.49219 199.46875 C 568.55042 220.01516 570.30901 237.50121 568.24414 253.94141 C 565.87681 258.68001 562.72549 260.49475 557.875 264.12305 C 555.95802 264.60414 553.83253 264.79596 552.14453 264.60547 C 551.34428 264.51512 550.79714 264.28011 550.34375 264.09961 C 550.02741 263.11431 549.6441 261.74543 549.23438 260.02344 C 548.36812 256.38324 547.40337 251.44189 546.43555 245.89648 C 544.51176 234.87309 542.56377 221.43095 541.01953 210.05664 C 540.40748 201.73896 539.05923 178.4716 539.29883 168.57031 C 539.76334 167.81258 542.97756 164.31283 548.85547 164.19922 z M 170.91797 415.38086 C 178.11807 415.36486 185.52061 417.96901 190.75781 424.72461 C 191.74381 425.99641 192.61881 427.51732 195.81641 428.57422 C 197.41521 429.10262 199.85105 429.14073 201.74805 428.30273 C 203.64505 427.46463 204.75716 426.16325 205.41406 425.17188 C 207.68014 421.75176 207.54868 419.98725 207.64844 417.91992 C 216.38059 416.72552 237.09038 414.85728 267.56055 417.80273 C 265.13075 425.94628 262.64029 433.56087 260.66406 440.41992 C 258.32136 448.55072 256.51836 455.60407 257.13086 462.57617 C 257.43706 466.06227 258.50354 469.70805 260.89844 472.75195 C 263.19334 475.66875 266.54973 477.67924 270.16016 478.73633 C 270.12425 478.72346 270.07481 478.70619 270.03906 478.69336 L 270.63086 478.87891 C 270.47262 478.83651 270.31748 478.78239 270.16016 478.73633 C 288.41722 485.28146 327.02292 497.06273 355.55859 502.25781 C 415.43319 517.96901 476.36679 505.25933 533.18359 491.55273 L 533.27344 491.5293 L 533.36523 491.50586 C 544.64333 488.48396 553.13637 485.45199 559.75977 481.55859 C 566.38307 477.66529 571.26603 472.48138 573.54883 466.20898 C 577.07606 456.5175 575.11262 446.54068 571.81445 434.19727 C 578.65658 435.61616 589.20753 438.40235 599.42773 443.58594 C 607.92243 447.89434 615.92608 453.75897 621.33398 461.38477 C 626.74198 469.01057 629.85614 478.32142 628.52344 491.22852 C 626.37844 512.00132 614.02602 526.74944 598.54492 537.96094 C 583.06372 549.17234 564.79776 556.23403 552.78906 560.67773 C 503.78726 578.81023 391.87329 598.79474 280.87109 591.82812 C 172.97279 585.05632 140.26698 574.72857 62.083984 544.10547 C 46.219184 537.89147 34.063431 521.82846 28.832031 504.19336 C 23.600631 486.55826 25.651206 468.31259 34.753906 458.05859 C 47.835195 443.32302 67.160488 429.19379 89.292969 428.10938 C 87.007591 438.04533 86.618285 448.56226 89.396484 458.71875 C 93.622584 474.16845 105.85277 488.0736 127.07617 495.0918 L 128.0293 495.4082 L 129.0293 495.46094 C 148.8771 496.52674 160.14889 498.74793 169.96289 503.26953 L 172.24805 504.32227 L 174.70508 503.7832 C 178.86868 502.8717 180.10736 500.70758 181.35156 499.02148 C 182.59566 497.33548 183.56906 495.54517 184.53906 493.54297 C 186.47896 489.53867 188.29494 484.71475 189.96094 479.74805 C 191.62704 474.78125 193.11382 469.7111 194.23242 465.4043 C 195.35102 461.0976 196.12172 458.115 196.32422 455.0332 C 196.66512 449.8464 192.78122 445.54692 189.16992 443.69922 C 185.55862 441.85142 181.52314 441.10721 176.74414 440.88281 L 173.42383 440.72852 L 171.07812 443.08398 C 166.07875 448.10518 161.54032 450.02499 158.26562 450.37109 C 154.99105 450.71729 152.87308 449.79251 151.17578 447.97461 C 147.78378 444.34141 145.77828 434.75984 155.54688 421.18164 C 157.34345 418.73464 163.72637 415.39656 170.91797 415.38086 z M 169.37305 489.96094 C 169.35505 489.98694 169.30411 490.09273 169.28711 490.11523 C 169.10721 490.35893 169.05085 490.22164 169.37305 489.96094 z "
             transform="matrix(0.99928359,-0.03784591,0.03784591,0.99928359,925.77701,197.71767)"
             id="path3442" />
          <path
             style="color:#000000;font-style:normal;font-variant:normal;font-weight:normal;font-stretch:normal;font-size:medium;line-height:125%;font-family:sans-serif;-inkscape-font-specification:'sans-serif, Normal';text-indent:0;text-align:start;text-decoration:none;text-decoration-line:none;text-decoration-style:solid;text-decoration-color:#000000;letter-spacing:0px;word-spacing:0px;text-transform:none;direction:ltr;block-progression:tb;writing-mode:lr-tb;baseline-shift:baseline;text-anchor:start;white-space:normal;clip-rule:nonzero;display:inline;overflow:visible;visibility:visible;opacity:1;isolation:auto;mix-blend-mode:normal;color-interpolation:sRGB;color-interpolation-filters:linearRGB;solid-color:#000000;solid-opacity:1;fill:#000000;fill-opacity:1;fill-rule:nonzero;stroke:none;stroke-width:6;stroke-linecap:butt;stroke-linejoin:miter;stroke-miterlimit:4;stroke-dasharray:none;stroke-dashoffset:0;stroke-opacity:1;color-rendering:auto;image-rendering:auto;shape-rendering:auto;text-rendering:auto;enable-background:accumulate"
             d="M 451.67773 140.56836 C 437.61256 140.56841 426.21283 152.2671 426.21289 166.53906 C 426.21285 180.81105 437.61266 192.50972 451.67773 192.50977 C 465.74291 192.50978 477.14254 180.8111 477.14258 166.53906 C 477.14262 152.26704 465.74291 140.56834 451.67773 140.56836 z M 451.67773 146.56836 C 462.42734 146.56835 471.14259 155.43839 471.14258 166.53906 C 471.14256 177.57008 462.53532 186.39355 451.87891 186.50391 C 457.13627 184.08238 460.96954 178.95624 461.42773 172.79688 C 462.09742 163.79445 455.30459 155.9355 446.30078 155.29492 C 441.15221 154.92866 436.37923 157.00348 433.10547 160.52539 C 435.58513 152.40147 442.96155 146.56838 451.67773 146.56836 z "
             transform="matrix(0.99928359,-0.03784591,0.03784591,0.99928359,925.77701,197.71767)"
             id="ellipse3448" />
          <path
             style="color:#000000;font-style:normal;font-variant:normal;font-weight:normal;font-stretch:normal;font-size:medium;line-height:125%;font-family:sans-serif;-inkscape-font-specification:'sans-serif, Normal';text-indent:0;text-align:start;text-decoration:none;text-decoration-line:none;text-decoration-style:solid;text-decoration-color:#000000;letter-spacing:0px;word-spacing:0px;text-transform:none;direction:ltr;block-progression:tb;writing-mode:lr-tb;baseline-shift:baseline;text-anchor:start;white-space:normal;clip-rule:nonzero;display:inline;overflow:visible;visibility:visible;opacity:1;isolation:auto;mix-blend-mode:normal;color-interpolation:sRGB;color-interpolation-filters:linearRGB;solid-color:#000000;solid-opacity:1;fill:#000000;fill-opacity:1;fill-rule:evenodd;stroke:none;stroke-width:7;stroke-linecap:round;stroke-linejoin:miter;stroke-miterlimit:4;stroke-dasharray:none;stroke-dashoffset:0;stroke-opacity:1;color-rendering:auto;image-rendering:auto;shape-rendering:auto;text-rendering:auto;enable-background:accumulate"
             d="M 375.50586 144.24609 A 3.50035 3.50035 0 0 0 372.56836 149.5 C 372.56836 149.5 375.57858 154.87912 379.99414 160.54688 C 381.98561 163.10305 384.21022 165.79737 386.71289 168.11523 C 377.57121 167.73235 370.70264 165.41721 365.79102 162.89844 C 358.9706 159.4008 356.13867 155.75391 356.13867 155.75391 A 3.50035 3.50035 0 0 0 353.41602 154.39258 A 3.50035 3.50035 0 0 0 350.65625 160.10742 C 350.65625 160.10742 354.64451 165.04846 362.59766 169.12695 C 368.52913 172.16872 376.80207 174.8501 387.50391 175.14453 C 384.60518 177.04651 381.69959 179.13114 379.0293 181.11133 C 373.32759 185.33955 368.8418 189.05469 368.8418 189.05469 A 3.5003959 3.5003959 0 0 0 373.30859 194.44531 C 373.30859 194.44531 377.66298 190.83794 383.19922 186.73242 C 388.73546 182.62691 395.59445 178.02069 399.70703 176.28906 A 3.50035 3.50035 0 0 0 401.88281 172.80273 A 3.5004805 3.5004805 0 0 0 399.99414 167.75781 A 3.5003519 3.5003519 0 0 0 398.5 167.07812 C 395.12521 166.4353 389.56005 161.43551 385.51562 156.24414 C 381.4711 151.05277 378.67383 146.07617 378.67383 146.07617 A 3.50035 3.50035 0 0 0 375.50586 144.24609 z "
             transform="matrix(0.99928359,-0.03784591,0.03784591,0.99928359,925.77701,197.71767)"
             id="path3452" />
          <path
             style="color:#000000;font-style:normal;font-variant:normal;font-weight:normal;font-stretch:normal;font-size:medium;line-height:125%;font-family:sans-serif;-inkscape-font-specification:'sans-serif, Normal';text-indent:0;text-align:start;text-decoration:none;text-decoration-line:none;text-decoration-style:solid;text-decoration-color:#000000;letter-spacing:0px;word-spacing:0px;text-transform:none;direction:ltr;block-progression:tb;writing-mode:lr-tb;baseline-shift:baseline;text-anchor:start;white-space:normal;clip-rule:nonzero;display:inline;overflow:visible;visibility:visible;opacity:1;isolation:auto;mix-blend-mode:normal;color-interpolation:sRGB;color-interpolation-filters:linearRGB;solid-color:#000000;solid-opacity:1;fill:#000000;fill-opacity:1;fill-rule:evenodd;stroke:none;stroke-width:7;stroke-linecap:round;stroke-linejoin:round;stroke-miterlimit:4;stroke-dasharray:none;stroke-dashoffset:0;stroke-opacity:1;color-rendering:auto;image-rendering:auto;shape-rendering:auto;text-rendering:auto;enable-background:accumulate"
             d="m 1400.7813,383.61411 c -1.0813,-0.0395 -1.8894,0.19045 -2.6219,0.4433 -1.4648,0.50569 -2.6684,1.22749 -3.6181,1.79838 -0.4722,0.2839 -0.8744,0.53185 -1.1139,0.67349 -0.1256,0.0361 -0.245,0.0726 -0.3826,0.11613 -0.3197,0.10116 -0.7197,0.23485 -1.2123,0.40163 -0.985,0.33355 -2.3288,0.80019 -3.9318,1.36072 -3.2058,1.12107 -7.4368,2.61413 -11.7526,4.12743 -4.3157,1.51331 -8.7164,3.04646 -12.241,4.2358 -3.5246,1.18945 -6.6545,2.10195 -6.6615,2.10322 a 3.50035,3.50035 0 0 0 0,0.002 c -1.8947,0.35806 -3.4318,1.13089 -5.863,2.18246 -2.431,1.05155 -5.3705,2.36514 -8.4555,3.65852 -6.1697,2.58685 -13.1948,4.98935 -16.5565,5.11666 -3.6588,0.13847 -10.1851,-1.23141 -15.4873,-2.72842 -5.299,-1.49592 -9.4796,-3.028 -9.4848,-3.02991 0,0 -0.01,-0.002 -0.01,-0.002 0,0 -0,-0.002 -0,-0.002 a 3.50035,3.50035 0 0 0 -2.4073,6.57242 c 0,0 0,0.002 0,0.002 0,0 4.0911,1.7116 4.9458,2.3438 0.9692,0.71703 6.7466,6.30639 8.3818,8.1242 a 3.50035,3.50035 0 0 0 0,0.002 c 1.0037,1.11552 2.1285,1.93564 3.8471,3.26695 1.7188,1.3313 3.8431,2.91664 6.0493,4.53991 4.4124,3.24653 9.1676,6.65891 11.4109,8.3183 2.1282,1.57429 4.576,1.97794 7.3296,2.12053 2.7536,0.14269 5.8693,-0.10331 9.2518,-0.64351 6.7651,-1.0805 14.5761,-3.35755 21.8845,-6.5126 8.0904,-3.49269 15.2617,-11.0335 21.0537,-18.79656 5.7918,-7.76316 10.054,-15.58788 11.6552,-20.83693 0.3965,-1.2995 0.6338,-2.41422 0.6609,-3.55686 0.027,-1.14263 -0.161,-2.47376 -1.102,-3.65428 -0.9412,-1.1805 -2.4913,-1.70741 -3.5726,-1.7469 z m -3.5467,8.79285 c -1.5691,4.00735 -4.9479,10.44134 -9.7045,16.81682 -5.39,7.22437 -12.243,13.97526 -18.2186,16.55486 -6.7577,2.91734 -14.1458,5.05798 -20.214,6.02724 -3.0343,0.48458 -5.7435,0.67024 -7.7851,0.56453 -2.0416,-0.1058 -3.3593,-0.63191 -3.5293,-0.75757 -2.3529,-1.7406 -7.0598,-5.11588 -11.4248,-8.32748 -2.1825,-1.60585 -4.275,-3.16898 -5.9104,-4.4358 -1.6354,-1.26681 -3.0003,-2.49483 -2.9296,-2.41626 -0.1506,-0.16741 -0.4697,-0.47896 -0.6448,-0.66937 3.374,0.6912 6.7383,1.17933 9.762,1.06491 5.739,-0.21735 12.6354,-2.98674 18.9989,-5.65478 3.1817,-1.33407 6.1631,-2.66746 8.5286,-3.69062 2.3655,-1.02325 4.5014,-1.75231 4.381,-1.72954 1.7673,-0.33392 4.0228,-1.14266 7.6001,-2.34991 3.5774,-1.20716 7.9945,-2.74543 12.3202,-4.26223 4.3257,-1.51679 8.5593,-3.01259 11.7467,-4.12722 1.5938,-0.55732 2.929,-1.02078 3.8681,-1.33875 0.4696,-0.15899 0.8435,-0.28102 1.0791,-0.3556 0.1179,-0.0373 0.2039,-0.0644 0.2203,-0.0689 0.016,-0.005 0.3991,0.0513 -0.6533,0.0912 1.429,-0.0541 1.4088,-0.32625 1.6522,-0.44765 0.2435,-0.1214 0.4196,-0.22414 0.605,-0.33364 0.08,-0.0476 0.1706,-0.10493 0.2522,-0.15425 z"
             id="path3458"
             inkscape:connector-curvature="0" />
          <path
             id="path3481"
             style="font-style:normal;font-variant:normal;font-weight:500;font-stretch:normal;font-size:50px;line-height:125%;font-family:Futura;-inkscape-font-specification:'Futura, Medium';text-align:start;writing-mode:lr-tb;text-anchor:start"
             d="m 1039.2116,715.40705 14.7413,5.03099 -0.4021,1.17838 q -1.3721,4.02036 -3.3761,6.79319 -1.902,2.54966 -4.9487,4.29592 -6.876,3.89614 -14.547,1.27814 -7.4862,-2.55493 -10.9784,-9.78318 -3.4842,-7.25136 -0.8899,-14.85307 2.6496,-7.76345 9.9246,-11.31703 7.2829,-3.57669 15.0695,-0.91925 4.182,1.42728 7.2261,4.37512 2.8823,2.89264 4.9236,7.87156 l -5.0893,2.36478 q -2.395,-7.34395 -8.7028,-9.49671 -5.6609,-1.93196 -10.8291,0.66387 -5.1445,2.52651 -7.1159,8.30288 -2.0345,5.96122 0.9232,11.27867 2.775,4.94556 7.4423,6.53844 3.9741,1.35632 8.0543,-0.2436 4.0881,-1.62302 5.7431,-5.26305 l -8.8956,-3.03594 1.7269,-5.06011 z"
             inkscape:connector-curvature="0" />
          <path
             id="path3483"
             style="font-style:normal;font-variant:normal;font-weight:500;font-stretch:normal;font-size:45px;line-height:125%;font-family:Futura;-inkscape-font-specification:'Futura, Medium';text-align:start;writing-mode:lr-tb;text-anchor:start"
             d="m 1068.2408,706.17324 -10.3202,35.64801 -4.7489,-1.3748 10.3202,-35.64802 4.7489,1.37481 z"
             inkscape:connector-curvature="0" />
          <path
             id="path3485"
             style="font-style:normal;font-variant:normal;font-weight:500;font-stretch:normal;font-size:45px;line-height:125%;font-family:Futura;-inkscape-font-specification:'Futura, Medium';text-align:start;writing-mode:lr-tb;text-anchor:start"
             d="m 1065.4653,732.80707 q 1.0946,-4.50517 5.0865,-6.88185 3.9918,-2.37669 8.6251,-1.25097 4.6546,1.1309 7.1271,5.1008 2.4298,3.95952 1.304,8.59279 -1.1361,4.67597 -5.1279,7.05266 -4.008,2.35015 -8.7267,1.20368 -4.676,-1.13609 -7.0578,-5.10659 -2.3923,-3.92779 -1.2303,-8.71052 z m 4.8901,1.27856 q -0.7574,3.11732 0.4671,5.33683 1.262,2.25124 4.059,2.93082 2.8184,0.68477 4.9461,-0.72028 2.1278,-1.40506 2.8644,-4.43697 0.7367,-3.03191 -0.5092,-5.25661 -1.2619,-2.25124 -4.059,-2.93082 -2.7543,-0.6692 -4.9086,0.75201 -2.1542,1.42122 -2.8598,4.32502 z"
             inkscape:connector-curvature="0" />
          <path
             id="path3487"
             style="font-style:normal;font-variant:normal;font-weight:500;font-stretch:normal;font-size:45px;line-height:125%;font-family:Futura;-inkscape-font-specification:'Futura, Medium';text-align:start;writing-mode:lr-tb;text-anchor:start"
             d="m 1101.6927,714.13182 -3.2282,17.90465 q 3.465,-2.50101 7.1627,-1.8343 4.26,0.76809 6.5196,4.45757 2.2635,3.66785 1.4135,8.38188 -0.8772,4.86539 -4.3047,7.52946 -3.402,2.64635 -7.7268,1.86657 -3.6545,-0.65892 -6.0236,-3.98859 l -0.3977,2.20565 -4.8654,-0.87725 6.5852,-36.52289 4.8654,0.87725 z m 6.8551,28.22929 q 0.5458,-3.02736 -0.7545,-5.22658 -1.3141,-2.24637 -3.8225,-2.69865 -2.6814,-0.48346 -4.7072,1.09371 -2.0004,1.55945 -2.5384,4.54356 -0.5537,3.0706 0.7583,5.20496 1.3042,2.1776 3.9856,2.66106 2.53,0.45617 4.5343,-1.1249 2.0297,-1.59879 2.5444,-4.45316 z"
             inkscape:connector-curvature="0" />
          <path
             id="path3489"
             style="font-style:normal;font-variant:normal;font-weight:500;font-stretch:normal;font-size:45px;line-height:125%;font-family:Futura;-inkscape-font-specification:'Futura, Medium';text-align:start;writing-mode:lr-tb;text-anchor:start"
             d="m 1135.2536,735.1988 4.9237,0.64515 -2.7804,21.21998 -4.9238,-0.64514 0.2912,-2.22222 q -3.3994,2.43544 -6.8852,1.9787 -4.4009,-0.57663 -6.8599,-4.13426 -2.4287,-3.62014 -1.7921,-8.47851 0.6251,-4.77123 3.8959,-7.57809 3.2708,-2.80687 7.5628,-2.2445 3.7037,0.48528 6.2452,3.92076 l 0.3226,-2.46187 z m -13.0156,9.02026 q -0.3997,3.0501 0.9831,5.18141 1.4235,2.1588 3.9725,2.49279 2.7233,0.35683 4.6464,-1.297 1.9316,-1.71919 2.3227,-4.70393 0.391,-2.98474 -1.0325,-5.14354 -1.4292,-2.11522 -4.1089,-2.46634 -2.5272,-0.33114 -4.4778,1.3634 -1.9316,1.71919 -2.3055,4.57321 z"
             inkscape:connector-curvature="0" />
          <path
             id="path3491"
             style="font-style:normal;font-variant:normal;font-weight:500;font-stretch:normal;font-size:45px;line-height:125%;font-family:Futura;-inkscape-font-specification:'Futura, Medium';text-align:start;writing-mode:lr-tb;text-anchor:start"
             d="m 1152.4865,721.29485 -3.8763,36.90882 -4.9168,-0.51638 3.8763,-36.90882 4.9168,0.51638 z"
             inkscape:connector-curvature="0" />
          <path
             id="path3493"
             style="font-style:normal;font-variant:normal;font-weight:500;font-stretch:normal;font-size:50px;line-height:125%;font-family:Futura;-inkscape-font-specification:'Futura, Medium';text-align:start;writing-mode:lr-tb;text-anchor:start"
             d="m 1178.5986,723.02728 -2.491,32.25258 11.0511,0.85352 -0.4117,5.33081 -16.7227,-1.29156 2.9027,-37.58339 5.6716,0.43804 z"
             inkscape:connector-curvature="0" />
          <path
             id="path3495"
             style="font-style:normal;font-variant:normal;font-weight:500;font-stretch:normal;font-size:45px;line-height:125%;font-family:Futura;-inkscape-font-specification:'Futura, Medium';text-align:start;writing-mode:lr-tb;text-anchor:start"
             d="m 1210.7627,753.40654 -15.3089,-0.92655 q 0.038,2.64385 1.4572,4.29265 1.4204,1.62687 3.7891,1.77024 1.8424,0.1115 3.1018,-0.69279 1.2374,-0.80562 2.8941,-3.08274 l 4.0265,2.57706 q -1.0646,1.58653 -2.211,2.70584 -1.145,1.09738 -2.4197,1.79069 -1.2734,0.67136 -2.7202,0.936 -1.4469,0.26464 -3.1137,0.16375 -4.7813,-0.28938 -7.4906,-3.53515 -2.7079,-3.26771 -2.3986,-8.37799 0.3066,-5.06641 3.3038,-8.03285 3.0165,-2.92124 7.6881,-2.6385 4.7155,0.2854 7.2752,3.45608 2.5391,3.14743 2.2192,8.43317 l -0.092,1.16109 z m -4.8222,-4.34222 q -0.7918,-4.01024 -4.7397,-4.24918 -0.8992,-0.0544 -1.7061,0.18291 -0.8055,0.2154 -1.4953,0.70196 -0.6666,0.46595 -1.171,1.16185 -0.5043,0.6959 -0.8014,1.60246 l 9.9135,0.6 z"
             inkscape:connector-curvature="0" />
          <path
             id="path3497"
             style="font-style:normal;font-variant:normal;font-weight:500;font-stretch:normal;font-size:45px;line-height:125%;font-family:Futura;-inkscape-font-specification:'Futura, Medium';text-align:start;writing-mode:lr-tb;text-anchor:start"
             d="m 1231.9414,742.24961 4.9639,0.13963 -0.6017,21.3929 -4.9639,-0.13962 0.063,-2.24032 q -3.1333,2.76944 -6.6475,2.67059 -4.4368,-0.1248 -7.2458,-3.41309 -2.7852,-3.35356 -2.6474,-8.25153 0.1352,-4.81011 3.1027,-7.93592 2.9675,-3.1258 7.2944,-3.00409 3.7339,0.10502 6.6125,3.26338 l 0.07,-2.48193 z m -12.0277,10.30066 q -0.087,3.07495 1.5064,5.05412 1.6362,2.00236 4.206,2.07464 2.7455,0.0772 4.4899,-1.7641 1.7462,-1.90722 1.8308,-4.91629 0.085,-3.00906 -1.5516,-5.01142 -1.6374,-1.95844 -4.339,-2.03443 -2.5478,-0.0717 -4.3154,1.81297 -1.7462,1.90723 -1.8271,4.78451 z"
             inkscape:connector-curvature="0" />
          <path
             id="path3499"
             style="font-style:normal;font-variant:normal;font-weight:500;font-stretch:normal;font-size:45px;line-height:125%;font-family:Futura;-inkscape-font-specification:'Futura, Medium';text-align:start;writing-mode:lr-tb;text-anchor:start"
             d="m 1242.6248,742.39699 4.9438,-0.002 8e-4,1.91162 q 1.3617,-1.42875 2.4162,-1.9565 1.0765,-0.54973 2.5486,-0.5503 1.9556,-7.6e-4 4.0874,1.27283 l -2.2614,4.52725 q -1.4066,-1.0102 -2.747,-1.00969 -4.0429,0.002 -4.0406,6.10996 l 0,11.0962 -4.9438,0.002 -0.01,-21.40137 z"
             inkscape:connector-curvature="0" />
          <path
             id="path3501"
             style="font-style:normal;font-variant:normal;font-weight:500;font-stretch:normal;font-size:45px;line-height:125%;font-family:Futura;-inkscape-font-specification:'Futura, Medium';text-align:start;writing-mode:lr-tb;text-anchor:start"
             d="m 1259.5675,742.36089 4.9641,-0.12917 0.052,1.97687 q 2.525,-2.63738 5.7758,-2.72197 3.7341,-0.0972 5.882,2.19881 1.8531,1.95197 1.9709,6.4768 l 0.3412,13.11324 -4.9641,0.12917 -0.311,-11.94908 q -0.082,-3.16299 -0.9923,-4.34821 -0.8887,-1.20776 -3.1511,-1.14889 -2.4601,0.064 -3.4502,1.71631 -0.9686,1.62975 -0.8646,5.62742 l 0.2686,10.32365 -4.9641,0.12918 -0.5567,-21.39413 z"
             inkscape:connector-curvature="0" />
          <path
             id="path3503"
             style="font-style:normal;font-variant:normal;font-weight:500;font-stretch:normal;font-size:45px;line-height:125%;font-family:Futura;-inkscape-font-specification:'Futura, Medium';text-align:start;writing-mode:lr-tb;text-anchor:start"
             d="m 1288.7388,741.36336 1.0083,21.3776 -4.9383,0.23294 -1.0084,-21.3776 4.9384,-0.23294 z m -6.1039,-8.6209 q -0.061,-1.29495 0.8382,-2.28324 0.8992,-0.98829 2.2161,-1.05041 1.3389,-0.0632 2.3271,0.8361 0.9873,0.87731 1.0505,2.21616 0.063,1.33884 -0.8362,2.32713 -0.8773,0.98726 -2.2161,1.05041 -1.3388,0.0631 -2.3271,-0.8361 -0.9883,-0.89926 -1.0525,-2.26005 z"
             inkscape:connector-curvature="0" />
          <path
             id="path3505"
             style="font-style:normal;font-variant:normal;font-weight:500;font-stretch:normal;font-size:45px;line-height:125%;font-family:Futura;-inkscape-font-specification:'Futura, Medium';text-align:start;writing-mode:lr-tb;text-anchor:start"
             d="m 1294.5108,741.10038 4.9544,-0.33617 0.1339,1.973 q 2.4128,-2.74043 5.6573,-2.96058 3.7268,-0.25288 5.9685,1.95149 1.933,1.87295 2.2395,6.38893 l 0.888,13.08759 -4.9544,0.33617 -0.8092,-11.9257 q -0.2142,-3.1568 -1.1729,-4.30303 -0.9383,-1.16963 -3.1963,-1.01642 -2.4553,0.1666 -3.3756,1.85876 -0.8998,1.66875 -0.6291,5.6586 l 0.6992,10.30346 -4.9545,0.33617 -1.4488,-21.35227 z"
             inkscape:connector-curvature="0" />
          <path
             id="path3507"
             style="font-style:normal;font-variant:normal;font-weight:500;font-stretch:normal;font-size:45px;line-height:125%;font-family:Futura;-inkscape-font-specification:'Futura, Medium';text-align:start;writing-mode:lr-tb;text-anchor:start"
             d="m 1341.147,758.19447 q 0.1471,1.50896 0.1486,2.65681 0.025,1.16758 -0.064,2.05939 -0.2904,2.45676 -1.6528,4.33363 -2.5627,3.60547 -7.6144,4.0979 -4.2645,0.41569 -7.2438,-1.61196 -3.0732,-2.08473 -3.9178,-6.21908 l 4.9424,-0.48177 q 0.4378,1.54686 1.177,2.3358 1.7248,1.84086 4.6553,1.55521 5.4016,-0.52654 4.7557,-7.15285 l -0.2899,-2.97418 q -2.6384,3.2817 -6.4655,3.65476 -4.3519,0.42421 -7.4362,-2.4542 -3.1105,-2.92001 -3.5773,-7.70933 -0.4541,-4.6581 1.8307,-8.17025 2.4624,-3.72816 7.0549,-4.17583 4.0239,-0.39223 6.984,2.34375 l -0.2345,-2.40559 4.9205,-0.47964 2.0273,20.79743 z m -5.7086,-9.64303 q -0.3027,-3.1054 -2.1459,-4.80225 -1.8694,-1.73847 -4.4937,-1.48266 -2.7992,0.27286 -4.215,2.50816 -1.284,2.00169 -0.9963,4.95401 0.2836,2.90858 1.93,4.62462 1.7947,1.8782 4.6158,1.60321 2.8211,-0.27499 4.2609,-2.49056 1.3277,-2.00595 1.0442,-4.91453 z"
             inkscape:connector-curvature="0" />
          <path
             id="path3509"
             style="font-style:normal;font-variant:normal;font-weight:500;font-stretch:normal;font-size:50px;line-height:125%;font-family:Futura;-inkscape-font-specification:'Futura, Medium';text-align:start;writing-mode:lr-tb;text-anchor:start"
             d="m 1384.8347,716.70192 1.0057,6.6628 q -5.4922,-3.34366 -10.7066,-2.55655 -5.7454,0.86727 -9.0572,5.58929 -3.3396,4.70152 -2.4432,10.6401 0.8855,5.86616 5.4532,9.30002 4.5676,3.43385 10.313,2.56658 2.9693,-0.44822 4.8996,-1.72723 1.0859,-0.65772 2.1932,-1.66435 1.1314,-1.01027 2.3325,-2.37672 l 1.024,6.7835 q -4.4164,3.45669 -9.7273,4.25837 -7.9905,1.20618 -14.4812,-3.5176 -6.4738,-4.77569 -7.6727,-12.71794 -1.075,-7.12147 2.7907,-13.40853 4.7624,-7.70635 13.96,-9.09473 5.0212,-0.75795 10.1163,1.26299 z"
             inkscape:connector-curvature="0" />
          <path
             id="path3511"
             style="font-style:normal;font-variant:normal;font-weight:500;font-stretch:normal;font-size:45px;line-height:125%;font-family:Futura;-inkscape-font-specification:'Futura, Medium';text-align:start;writing-mode:lr-tb;text-anchor:start"
             d="m 1392.8242,740.45448 q -0.8775,-4.55243 1.7649,-8.37357 2.6424,-3.82115 7.3243,-4.7236 4.7035,-0.9066 8.6026,1.67602 3.856,2.59093 4.7584,7.27282 0.9108,4.72503 -1.7316,8.54618 -2.6682,3.80373 -7.4363,4.72281 -4.7251,0.91077 -8.5421,-1.71006 -3.8086,-2.57768 -4.7402,-7.4106 z m 4.979,-0.87021 q 0.6072,3.15003 2.6436,4.65956 2.0837,1.5228 4.91,0.978 2.848,-0.54895 4.199,-2.71141 1.351,-2.16246 0.7604,-5.22618 -0.5905,-3.06372 -2.6485,-4.5691 -2.0837,-1.5228 -4.9101,-0.978 -2.7832,0.53648 -4.1516,2.72467 -1.3684,2.1882 -0.8028,5.12246 z"
             inkscape:connector-curvature="0" />
          <path
             id="path3513"
             style="font-style:normal;font-variant:normal;font-weight:500;font-stretch:normal;font-size:45px;line-height:125%;font-family:Futura;-inkscape-font-specification:'Futura, Medium';text-align:start;writing-mode:lr-tb;text-anchor:start"
             d="m 1417.3375,725.02866 4.7999,-1.18404 0.4736,1.91999 q 1.0289,-1.79271 1.8839,-2.54678 0.9138,-0.79119 2.4924,-1.1806 3.52,-0.8683 6.3258,1.6985 1.5035,-3.6298 5.3648,-4.58229 7.0186,-1.73132 9.1183,6.78062 l 3.168,12.84258 -4.8213,1.1893 -2.847,-11.54126 q -0.7367,-2.98664 -1.7673,-4.04505 -1.0571,-1.07447 -2.7638,-0.65348 -1.9839,0.4894 -2.5329,2.20901 -0.5276,1.71434 0.288,5.02098 l 2.647,10.7306 -4.8213,1.1893 -2.8311,-11.47726 q -1.3683,-5.54663 -4.5682,-4.75727 -2.0267,0.49993 -2.5917,2.24613 -0.5437,1.74094 0.2614,5.00491 l 2.647,10.7306 -4.8,1.18403 -5.1255,-20.77852 z"
             inkscape:connector-curvature="0" />
          <path
             id="path3515"
             style="font-style:normal;font-variant:normal;font-weight:500;font-stretch:normal;font-size:45px;line-height:125%;font-family:Futura;-inkscape-font-specification:'Futura, Medium';text-align:start;writing-mode:lr-tb;text-anchor:start"
             d="m 1450.0331,716.97493 4.6727,-1.61486 0.6459,1.86907 q 0.8619,-1.87871 1.6449,-2.70727 0.8382,-0.87087 2.375,-1.40198 3.4266,-1.18423 6.4538,1.11727 1.1678,-3.75128 4.9267,-5.05035 6.8325,-2.36128 9.6962,5.92492 l 4.3207,12.50199 -4.6935,1.62204 -3.8828,-11.23518 q -1.0048,-2.90744 -2.1272,-3.86793 -1.1503,-0.97408 -2.8117,-0.3999 -1.9314,0.66747 -2.322,2.42981 -0.3698,1.75516 0.7427,4.97411 l 3.6101,10.44602 -4.6935,1.62204 -3.8613,-11.17288 q -1.866,-5.39953 -4.9811,-4.32296 -1.973,0.68183 -2.3771,2.47211 -0.3835,1.78311 0.7146,4.96053 l 3.6102,10.44601 -4.6727,1.61486 -6.9906,-20.22747 z"
             inkscape:connector-curvature="0" />
          <path
             id="path3517"
             style="font-style:normal;font-variant:normal;font-weight:500;font-stretch:normal;font-size:45px;line-height:125%;font-family:Futura;-inkscape-font-specification:'Futura, Medium';text-align:start;writing-mode:lr-tb;text-anchor:start"
             d="m 1484.904,715.85708 q -2.0203,-4.17292 -0.451,-8.54566 1.5693,-4.37274 5.8609,-6.45042 4.3113,-2.08726 8.744,-0.59584 4.3932,1.51057 6.4709,5.80215 2.0968,4.33114 0.5275,8.70388 -1.5986,4.36254 -5.9693,6.47852 -4.3311,2.09683 -8.6943,0.54733 -4.344,-1.50994 -6.4887,-5.93996 z m 4.587,-2.12304 q 1.3978,2.88742 3.7543,3.82164 2.4055,0.93485 4.9963,-0.31942 2.6106,-1.26385 3.3591,-3.70127 0.7485,-2.43743 -0.6111,-5.24575 -1.3595,-2.80832 -3.7358,-3.73296 -2.4055,-0.93485 -4.9963,0.31942 -2.5512,1.23512 -3.31,3.7019 -0.7587,2.46678 0.5435,5.15644 z"
             inkscape:connector-curvature="0" />
          <path
             id="path3519"
             style="font-style:normal;font-variant:normal;font-weight:500;font-stretch:normal;font-size:45px;line-height:125%;font-family:Futura;-inkscape-font-specification:'Futura, Medium';text-align:start;writing-mode:lr-tb;text-anchor:start"
             d="m 1502.3028,695.64449 4.0357,-2.8936 1.1523,1.60712 q 0.6091,-3.60007 3.2519,-5.49499 3.0357,-2.17661 6.102,-1.48226 2.6294,0.57508 5.2669,4.25359 l 7.6438,10.66054 -4.0357,2.8936 -6.9651,-9.71412 q -1.8437,-2.57139 -3.2622,-3.04137 -1.4134,-0.50065 -3.2527,0.81811 -1.9999,1.434 -1.8917,3.35717 0.1132,1.89252 2.4434,5.14246 l 6.0177,8.39272 -4.0356,2.8936 -12.4707,-17.39257 z"
             inkscape:connector-curvature="0" />
          <path
             id="path3521"
             style="font-style:normal;font-variant:normal;font-weight:500;font-stretch:normal;font-size:45px;line-height:125%;font-family:Futura;-inkscape-font-specification:'Futura, Medium';text-align:start;writing-mode:lr-tb;text-anchor:start"
             d="m 1529.5266,676.86829 -1.1237,4.49134 q -2.1158,-0.6074 -3.0728,0.45279 -0.4564,0.50563 -0.4378,1.17364 0,0.65329 0.5243,1.12442 0.9134,0.82448 3.7244,-0.48613 3.8913,-1.78594 5.8643,-1.84021 1.973,-0.0543 3.7672,1.56525 2.2998,2.07592 2.3181,5.17089 -0.019,2.97243 -2.1244,5.30484 -3.6071,3.99609 -9.0071,2.14101 l 1.3752,-4.44197 q 1.7306,0.37818 2.3497,0.31539 1.2235,-0.10926 2.0627,-1.03897 1.6784,-1.8594 -0.018,-3.39058 -0.9787,-0.88337 -3.1224,-0.21363 -0.7779,0.30427 -1.5394,0.62327 -0.7616,0.31899 -1.5542,0.63957 -2.2257,0.89174 -3.5975,0.83747 -1.7458,-0.0663 -3.3117,-1.47965 -2.0714,-1.8698 -2.1443,-4.51082 -0.043,-2.67364 1.8264,-4.74508 2.7531,-3.05008 7.2409,-1.69284 z"
             inkscape:connector-curvature="0" />
        </g>
      </g>
    </g>
  </g>
</svg>
