<?xml version="1.0" encoding="UTF-8" standalone="no"?>
<!-- Created with Inkscape (http://www.inkscape.org/) -->

<svg
   xmlns:dc="http://purl.org/dc/elements/1.1/"
   xmlns:cc="http://creativecommons.org/ns#"
   xmlns:rdf="http://www.w3.org/1999/02/22-rdf-syntax-ns#"
   xmlns:svg="http://www.w3.org/2000/svg"
   xmlns="http://www.w3.org/2000/svg"
   xmlns:xlink="http://www.w3.org/1999/xlink"
   xmlns:sodipodi="http://sodipodi.sourceforge.net/DTD/sodipodi-0.dtd"
   xmlns:inkscape="http://www.inkscape.org/namespaces/inkscape"
   width="210mm"
   height="297mm"
   viewBox="0 0 744.09448819 1052.3622047"
   id="svg4761"
   version="1.1"
   inkscape:version="0.91 r13725"
   sodipodi:docname="GLClogo_path.svg">
  <defs
     id="defs4763" />
  <sodipodi:namedview
     id="base"
     pagecolor="#ffffff"
     bordercolor="#666666"
     borderopacity="1.0"
     inkscape:pageopacity="0.0"
     inkscape:pageshadow="2"
     inkscape:zoom="0.35"
     inkscape:cx="934.96697"
     inkscape:cy="457.52035"
     inkscape:document-units="px"
     inkscape:current-layer="layer1"
     showgrid="false"
     inkscape:window-width="1665"
     inkscape:window-height="995"
     inkscape:window-x="0"
     inkscape:window-y="1"
     inkscape:window-maximized="0"
     showguides="false" />
  <metadata
     id="metadata4766">
    <rdf:RDF>
      <cc:Work
         rdf:about="">
        <dc:format>image/svg+xml</dc:format>
        <dc:type
           rdf:resource="http://purl.org/dc/dcmitype/StillImage" />
        <dc:title></dc:title>
      </cc:Work>
    </rdf:RDF>
  </metadata>
  <g
     inkscape:label="Layer 1"
     inkscape:groupmode="layer"
     id="layer1">
    <g
       id="g4876"
       transform="translate(-98.689134,-508.64955)"
       style="stroke-width:11;stroke-miterlimit:4;stroke-dasharray:none">
      <path
         style="fill:none;fill-rule:evenodd;stroke:#000000;stroke-width:15;stroke-linecap:butt;stroke-linejoin:miter;stroke-miterlimit:4;stroke-dasharray:none;stroke-opacity:1"
         d="m 1463.711,1289.748 c -56.7171,13.6826 -116.4323,25.9194 -174.1941,10.6885 -27.7919,-5.0253 -66.8752,-16.9325 -84.6574,-23.3153 -20.896,-5.5991 4.8431,-42.3841 10.5471,-89.1545 15.8871,-41.5535 13.1889,-63.644 23.1409,-108.6662 7.2978,-25.1714 5.4582,-69.3134 -6.5193,-89.52207 -10.7223,-21.1229 -27.8655,-47.27681 -47.2653,-56.29266 -31.4444,-22.25709 -93.6348,0.99472 -79.3025,9.0928 6.7135,3.79334 39.5915,19.28056 43.5586,28.18419 0,0 -10.1779,26.8722 -15.9238,23.18785 -8.7184,-5.59033 -53.125,-31.38887 -71.1634,-13.47219 -28.8375,25.88188 0.4366,73.39548 37.5892,44.61648 -11.7728,-6.7057 -24.8748,-9.159 -6.4261,-24.0694 0,0 34.6617,25.183 56.8683,33.94 1.862,15.1852 -4.9359,23.2609 -4.9359,23.2609 -8.1536,-3.459 -24.5452,-21.8493 -25.9154,-10.9102 -3.0269,24.1656 -37.0395,67.5499 -61.4822,90.9089 15.1717,8.7594 46.8236,11.7069 60.4805,17.8424 5.1133,2.2972 -3.1469,9.7276 -10.417,13.925 -7.8238,5.6029 -14.6864,3.6079 -20.004,2.0958 -5.3176,-1.5122 -5.9359,18.882 -5.9359,18.882 11.1028,-1.1025 41.867,2.413 53.4474,12.4694 -3.5246,12.6904 -1.4881,28.2916 -6.2283,22.177 -13.592,-17.5327 -39.4278,-14.0105 -47.205,-3.3624 -22.2719,30.9149 3.204,55.419 26.9122,31.6077 8.1518,0.3828 12.6637,2.8947 12.4487,6.1662 -0.4044,6.1525 -10.3245,40.7299 -15.7393,41.9153 -10.9711,-5.0547 -23.4109,-7.3971 -43.6702,-8.485 -38.7415,-12.8112 -39.2887,-46.5374 -28.319,-71.803 10.1512,-15.4585 16.9242,-14.0958 27.9257,-25.7038 4.2201,-14.1391 8.8992,-23.8794 5.421,-32.46 -3.6282,-4.7183 -40.5914,-13.9823 -58.6143,-27.2869 -2.8777,-5.4926 32.0695,-48.8419 63.1791,-72.6882 8.7711,-8.9884 -53.2174,-7.501 -68.9449,-37.8668 -10.45689,-18.2222 -16.41012,-62.70519 5.6711,-83.58365 28.2993,-26.59556 58.5257,-12.40393 68.1833,-12.94531 29.5397,-38.29721 57.7634,-46.387 89.9415,-46.20928 24.1799,0.77921 63.5828,7.76232 94.509,48.56871 5.6663,4.75424 6.4961,-14.0249 21.5407,-31.82907 0,-17.51484 2.5803,-40.30371 32.4098,-43.15882 24.9094,3.2858 -12.918,-13.91327 18.5338,-36.44414 18.6814,-3.972 43.2064,1.94821 32.8341,33.38667 0.5218,9.28886 29.426,-8.03605 36.0041,27.5012 30.3228,5.36257 33.7685,49.37113 33.7685,49.37113 28.637,-11.09585 88.6841,1.64961 91.98,26.48674 3.1733,17.84842 15.9031,87.71342 -2.8826,129.52202 -17.0739,40.2424 -47.046,21.7959 -47.046,37.9633 5.8347,37.8295 5.993,71.5011 15.9076,105.8231 9.7223,36.284 13.7938,47.9083 -30.0103,59.6456 z"
         id="path4878"
         inkscape:connector-curvature="0"
         sodipodi:nodetypes="cccccccsssccccsscscsccsccsccccccccccccccccccccccc" />
      <path
         style="fill:none;fill-rule:evenodd;stroke:#000000;stroke-width:15;stroke-linecap:butt;stroke-linejoin:miter;stroke-miterlimit:4;stroke-dasharray:none;stroke-opacity:1"
         d="m 1283.0261,881.28401 c 0,0 67.9269,9.84304 119.4577,-0.70307"
         id="path4880"
         inkscape:connector-curvature="0" />
      <path
         style="fill:none;fill-rule:evenodd;stroke:#000000;stroke-width:15;stroke-linecap:butt;stroke-linejoin:miter;stroke-miterlimit:4;stroke-dasharray:none;stroke-opacity:1"
         d="m 1476.7895,1074.9452 c -3.0718,-4.1858 -7.842,-35.671 -10.9537,-58.613 -0.6344,-8.5658 -2.1529,-33.04158 -1.7773,-43.62775 1.3075,-6.04402 9.8955,-12.07729 21.1714,-10.20224 11.5807,-0.005 19.4675,8.21333 22.0152,19.28604 1.8371,5.93982 1.98,16.76045 2.0276,23.11185 -0.977,20.5153 1.0765,38.6316 -1.4156,56.7478 -3.6115,8.1254 -9.0217,10.6104 -14.4755,14.9146 -6.5432,2.1294 -14.0519,1.0268 -16.5921,-1.6173 z"
         id="path4882"
         inkscape:connector-curvature="0"
         sodipodi:nodetypes="ccccccccc" />
      <ellipse
         style="fill:none;fill-opacity:1;stroke:#000000;stroke-width:6;stroke-miterlimit:4;stroke-dasharray:none;stroke-opacity:1"
         id="path4886"
         cx="1383.9587"
         cy="972.02515"
         rx="22.465572"
         ry="22.970648" />
      <ellipse
         ry="14.756604"
         rx="14.754791"
         cy="876.92297"
         cx="1446.0706"
         id="ellipse4910"
         style="fill:#000000;fill-opacity:1;stroke:#000000;stroke-width:3.24776316;stroke-miterlimit:4;stroke-dasharray:none;stroke-opacity:1"
         transform="matrix(0.99747933,0.07095766,-0.07418333,0.99724462,0,0)" />
      <path
         style="fill:none;fill-rule:evenodd;stroke:#000000;stroke-width:7;stroke-linecap:round;stroke-linejoin:miter;stroke-miterlimit:4;stroke-dasharray:none;stroke-opacity:1"
         d="m 1285.6791,963.41727 c 0,0 13.6371,17.17259 45.4569,13.13198"
         id="path4912"
         inkscape:connector-curvature="0" />
      <path
         style="fill:none;fill-rule:evenodd;stroke:#000000;stroke-width:7;stroke-linecap:round;stroke-linejoin:miter;stroke-miterlimit:4;stroke-dasharray:none;stroke-opacity:1"
         d="m 1307.9025,953.27514 c 0,0 11.6167,20.70812 22.2233,22.72843"
         id="path4914"
         inkscape:connector-curvature="0" />
      <path
         style="fill:none;fill-rule:evenodd;stroke:#000000;stroke-width:7;stroke-linecap:round;stroke-linejoin:miter;stroke-miterlimit:4;stroke-dasharray:none;stroke-opacity:1"
         d="m 1303.3568,997.23704 c 0,0 17.6776,-14.64718 27.2741,-18.68779"
         id="path4916"
         inkscape:connector-curvature="0" />
      <path
         style="fill:none;fill-rule:evenodd;stroke:#000000;stroke-width:7;stroke-linecap:round;stroke-linejoin:round;stroke-miterlimit:4;stroke-dasharray:none;stroke-opacity:1"
         d="m 1298.4895,1029.1479 c 0,0 16.9643,6.9643 26.0715,6.9643 9.1071,0 28.2142,-9.2857 31.7857,-9.8215 3.5714,-0.5357 36.4285,-11.0714 37.1428,-11.0714 0.7143,0 9.8215,-6.7857 6.7857,1.9643 -3.0357,8.75 -17.8571,30.7143 -32.1428,36.25 -14.2857,5.5357 -30.7143,7.6786 -35.1786,4.1071 -4.4643,-3.5714 -18.3928,-14.2857 -20.1786,-16.4285 -1.7857,-2.1429 -6.7857,-7.5 -8.5714,-8.9286 -1.7857,-1.4286 -5.7143,-3.0357 -5.7143,-3.0357 z"
         id="path4918"
         inkscape:connector-curvature="0" />
      <path
         style="fill:none;fill-rule:evenodd;stroke:#000000;stroke-width:15;stroke-linecap:butt;stroke-linejoin:miter;stroke-miterlimit:4;stroke-dasharray:none;stroke-opacity:1"
         d="m 1497.4286,1230.9336 c 0,0 76.8463,8.3521 70.8368,66.5511 -4.8281,46.7577 -56.4172,66.7688 -80.5917,75.7143 -50.7569,18.782 -162.7977,38.6433 -274.9913,31.6019 -108.2926,-6.7965 -142.7281,-17.5465 -221.05222,-48.2248 -37.27935,-14.6018 -53.20618,-72.0973 -30.20305,-98.0096 16.09482,-18.1303 41.71577,-36.2044 71.71577,-31.9187"
         id="path4924"
         inkscape:connector-curvature="0"
         sodipodi:nodetypes="csssssc" />
      <path
         style="fill:none;fill-rule:evenodd;stroke:#000000;stroke-width:15;stroke-linecap:butt;stroke-linejoin:miter;stroke-miterlimit:4;stroke-dasharray:none;stroke-opacity:1"
         d="m 1133.7119,1216.8227 c 0,0 26.6824,-5.52 72.1392,-0.4692"
         id="path4926"
         inkscape:connector-curvature="0"
         sodipodi:nodetypes="cc" />
      <path
         sodipodi:nodetypes="csssssc"
         inkscape:connector-curvature="0"
         id="path4936"
         d="m 1021.0211,584.19078 c -30.00003,-4.2857 -55.62098,13.7884 -71.7158,31.9187 -23.00313,25.9123 -7.0763,83.4078 30.20305,98.0096 78.32415,30.6783 112.75965,41.4283 221.05225,48.2248 112.1936,7.0414 224.2344,-12.8199 274.9913,-31.6019 24.1745,-8.9455 75.7636,-28.9566 80.5917,-75.7143 6.0095,-58.199 -70.8368,-66.5511 -70.8368,-66.5511"
         style="fill:none;fill-rule:evenodd;stroke:none;stroke-width:15;stroke-linecap:butt;stroke-linejoin:miter;stroke-miterlimit:4;stroke-dasharray:none;stroke-opacity:1" />
      <text
         transform="matrix(0.99928358,0.03784591,-0.03784591,0.99928358,14.650642,572.87371)"
         sodipodi:linespacing="125%"
         id="text4948"
         style="font-style:normal;font-variant:normal;font-weight:normal;font-stretch:normal;font-size:40px;line-height:125%;font-family:sans-serif;-inkscape-font-specification:'sans-serif, Normal';text-align:start;letter-spacing:0px;word-spacing:0px;writing-mode:lr-tb;text-anchor:start;fill:#000000;fill-opacity:1;stroke:none;stroke-width:1px;stroke-linecap:butt;stroke-linejoin:miter;stroke-opacity:1"
         xml:space="preserve"><textPath
           id="textPath4950"
           xlink:href="#path4936"
           style="font-style:normal;font-variant:normal;font-weight:500;font-stretch:normal;font-size:45px;line-height:125%;font-family:Futura;-inkscape-font-specification:'Futura, Medium';text-align:start;writing-mode:lr-tb;text-anchor:start"><tspan
   style="font-style:normal;font-variant:normal;font-weight:500;font-stretch:normal;font-size:50px;line-height:125%;font-family:Futura;-inkscape-font-specification:'Futura, Medium';text-align:start;writing-mode:lr-tb;text-anchor:start"
   id="tspan4956">               G</tspan>lobal <tspan
   style="font-style:normal;font-variant:normal;font-weight:500;font-stretch:normal;font-size:50px;line-height:125%;font-family:Futura;-inkscape-font-specification:'Futura, Medium';text-align:start;writing-mode:lr-tb;text-anchor:start"
   id="tspan4954">L</tspan>earning <tspan
   style="font-style:normal;font-variant:normal;font-weight:500;font-stretch:normal;font-size:50px;line-height:125%;font-family:Futura;-inkscape-font-specification:'Futura, Medium';text-align:start;writing-mode:lr-tb;text-anchor:start"
   id="tspan4952">C</tspan>ommons</textPath></text>
    </g>
    <g
       id="g4955"
       transform="translate(-879.23882,-599.50382)"
       style="stroke-width:11;stroke-miterlimit:4;stroke-dasharray:none">
      <path
         style="fill:none;fill-rule:evenodd;stroke:#000000;stroke-width:15;stroke-linecap:butt;stroke-linejoin:miter;stroke-miterlimit:4;stroke-dasharray:none;stroke-opacity:1"
         d="m 1463.711,1289.748 c -56.7171,13.6826 -116.4323,25.9194 -174.1941,10.6885 -27.7919,-5.0253 -66.8752,-16.9325 -84.6574,-23.3153 -20.896,-5.5991 -5.4614,-40.468 3.9811,-86.6291 8.1738,-39.959 13.6524,-63.3843 24.6561,-108.1611 6.2544,-25.4507 10.509,-72.3439 -1.4685,-92.55257 -10.7223,-21.1229 -27.8655,-47.27681 -47.2653,-56.29266 -31.4444,-22.25709 -93.6348,0.99472 -79.3025,9.0928 6.7135,3.79334 39.5915,19.28056 43.5586,28.18419 3.8161,8.56467 -10.1779,26.8722 -15.9238,23.18785 -8.7184,-5.59033 -53.125,-31.38887 -71.1634,-13.47219 -38.3018,31.41758 13.2903,81.68038 35.9821,45.50938 1.9114,-3.0469 -29.9739,-7.0858 -4.819,-24.9623 4.002,-2.84407 54.2107,30.8045 56.8683,33.94 3.7333,4.4045 -3.0508,23.3846 -6.9002,24.1538 -3.5929,0.7179 -23.1166,-22.0279 -23.594,-15.9102 -1.8945,24.2806 -54.2252,74.5853 -56.2835,86.1772 -1.1852,6.6751 46.066,14.2322 59.7229,20.3677 5.1133,2.2972 -3.1469,19.8292 -10.417,24.0266 -5.2984,3.3301 -21.6183,-4.083 -24.3603,-3.65 -2.4047,0.3798 -8.1675,22.1418 -2.8423,22.1019 11.1571,-0.084 46.8423,5.8951 48.1441,11.7118 1.6929,7.5641 0.2797,27.7865 -4.4605,21.6719 -13.592,-17.5327 -43.9735,-8.9597 -51.7507,1.6884 -22.2719,30.9149 -0.4105,52.7767 26.6597,32.8704 6.5745,-4.8346 17.967,-3.1663 18.2571,2.1255 0.3374,6.1566 -11.3347,38.4571 -16.7495,39.6425 -11.9813,1.2588 -7.2485,-10.9326 -20.9418,-11.0104 -71.5714,11.9375 -69.0882,-43.0018 -58.1185,-68.2674 10.1512,-15.4585 19.4496,-21.1669 32.9765,-29.4919 3.4625,-4.0376 9.3411,-26.9099 7.4413,-29.6821 -3.6282,-4.7183 -40.5914,-13.9823 -58.6143,-27.2869 -2.8777,-5.4926 32.0695,-45.3064 63.1791,-72.6882 8.7711,-8.9884 -49.6819,-4.218 -69.7025,-34.3313 -15.00259,-19.4849 -15.65252,-66.24069 6.4287,-87.11915 28.2993,-26.59556 63.6009,-4.42687 68.1833,-12.94531 20.2146,-37.57789 57.7634,-46.387 89.9415,-46.20928 24.1799,0.77921 63.5828,7.76232 94.509,48.56871 5.6663,4.75424 -1.5851,-28.67211 22.5509,-47.99151 4.0406,-17.51484 10.1564,-26.66665 31.3996,-26.99638 22.384,3.2858 -15.4434,-23.00464 18.5338,-36.44414 18.6814,-3.972 43.2064,1.94821 32.8341,33.38667 0.5218,9.28886 29.426,-8.03605 36.0041,27.5012 30.3228,5.36257 33.7685,49.37113 33.7685,49.37113 28.637,-11.09585 84.1384,-3.40115 92.9902,33.55781 3.1733,17.84842 8.3269,95.28955 -2.3776,120.93575 -17.0739,40.2424 -48.5612,23.3111 -48.5612,39.4785 5.8347,37.8295 5.993,71.5011 15.9076,105.8231 9.7223,36.284 13.7938,47.9083 -30.0103,59.6456 z"
         id="path4957"
         inkscape:connector-curvature="0"
         sodipodi:nodetypes="cccssccssscssssssscsssscsscccccccccscccccccccccccc" />
      <path
         style="fill:none;fill-rule:evenodd;stroke:#000000;stroke-width:15;stroke-linecap:butt;stroke-linejoin:miter;stroke-miterlimit:4;stroke-dasharray:none;stroke-opacity:1"
         d="m 1283.0261,881.28401 c 0,0 67.9269,9.84304 119.4577,-0.70307"
         id="path4959"
         inkscape:connector-curvature="0" />
      <path
         style="fill:none;fill-rule:evenodd;stroke:#000000;stroke-width:15;stroke-linecap:butt;stroke-linejoin:miter;stroke-miterlimit:4;stroke-dasharray:none;stroke-opacity:1"
         d="m 1476.7895,1074.9452 c -3.0718,-4.1858 -7.842,-35.671 -10.9537,-58.613 -0.6344,-8.5658 -2.1529,-33.04158 -1.7773,-43.62775 1.3075,-6.04402 5.3498,-11.06714 21.1714,-10.20224 11.5807,-0.005 19.4675,8.21333 22.0152,19.28604 1.8371,5.93982 1.98,16.76045 2.0276,23.11185 -0.977,20.5153 1.0765,38.6316 -1.4156,56.7478 -3.1064,14.1863 -14.4755,14.9146 -14.4755,14.9146 -6.5432,2.1294 -14.0519,1.0268 -16.5921,-1.6173 z"
         id="path4961"
         inkscape:connector-curvature="0"
         sodipodi:nodetypes="ccccccccc" />
      <ellipse
         style="fill:none;fill-opacity:1;stroke:#000000;stroke-width:6;stroke-miterlimit:4;stroke-dasharray:none;stroke-opacity:1"
         id="ellipse4963"
         cx="1383.9587"
         cy="972.02515"
         rx="22.465572"
         ry="22.970648" />
      <ellipse
         ry="14.756604"
         rx="14.754791"
         cy="876.92297"
         cx="1446.0706"
         id="ellipse4965"
         style="fill:#000000;fill-opacity:1;stroke:#000000;stroke-width:3.24776316;stroke-miterlimit:4;stroke-dasharray:none;stroke-opacity:1"
         transform="matrix(0.99747933,0.07095766,-0.07418333,0.99724462,0,0)" />
      <path
         style="fill:none;fill-rule:evenodd;stroke:#000000;stroke-width:7;stroke-linecap:round;stroke-linejoin:miter;stroke-miterlimit:4;stroke-dasharray:none;stroke-opacity:1"
         d="m 1285.6791,963.41727 c 0,0 13.6371,17.17259 45.4569,13.13198"
         id="path4967"
         inkscape:connector-curvature="0" />
      <path
         style="fill:none;fill-rule:evenodd;stroke:#000000;stroke-width:7;stroke-linecap:round;stroke-linejoin:miter;stroke-miterlimit:4;stroke-dasharray:none;stroke-opacity:1"
         d="m 1307.9025,953.27514 c 0,0 11.6167,20.70812 22.2233,22.72843"
         id="path4969"
         inkscape:connector-curvature="0" />
      <path
         style="fill:none;fill-rule:evenodd;stroke:#000000;stroke-width:7;stroke-linecap:round;stroke-linejoin:miter;stroke-miterlimit:4;stroke-dasharray:none;stroke-opacity:1"
         d="m 1303.3568,997.23704 c 0,0 17.6776,-14.64718 27.2741,-18.68779"
         id="path4971"
         inkscape:connector-curvature="0" />
      <path
         style="fill:none;fill-rule:evenodd;stroke:#000000;stroke-width:7;stroke-linecap:round;stroke-linejoin:round;stroke-miterlimit:4;stroke-dasharray:none;stroke-opacity:1"
         d="m 1298.4895,1029.1479 c 0,0 16.9643,6.9643 26.0715,6.9643 9.1071,0 28.2142,-9.2857 31.7857,-9.8215 3.5714,-0.5357 36.4285,-11.0714 37.1428,-11.0714 0.7143,0 9.8215,-6.7857 6.7857,1.9643 -3.0357,8.75 -17.8571,30.7143 -32.1428,36.25 -14.2857,5.5357 -30.7143,7.6786 -35.1786,4.1071 -4.4643,-3.5714 -18.3928,-14.2857 -20.1786,-16.4285 -1.7857,-2.1429 -6.7857,-7.5 -8.5714,-8.9286 -1.7857,-1.4286 -5.7143,-3.0357 -5.7143,-3.0357 z"
         id="path4973"
         inkscape:connector-curvature="0" />
      <path
         style="fill:none;fill-rule:evenodd;stroke:#000000;stroke-width:15;stroke-linecap:butt;stroke-linejoin:miter;stroke-miterlimit:4;stroke-dasharray:none;stroke-opacity:1"
         d="m 1497.4286,1230.9336 c 0,0 74.7034,14.0664 70.8368,66.5511 -3.4537,46.8793 -56.4172,66.7688 -80.5917,75.7143 -50.7569,18.782 -162.752,37.8728 -274.9913,31.6019 -83.2926,-4.6536 -139.9163,-9.6024 -216.05222,-45.3677 -50.85078,-23.8875 -51.45353,-71.4037 -39.12111,-94.4381 6.57972,-12.2896 34.32009,-32.4448 69.57293,-38.3473"
         id="path4975"
         inkscape:connector-curvature="0"
         sodipodi:nodetypes="csssssc" />
      <path
         style="fill:none;fill-rule:evenodd;stroke:#000000;stroke-width:15;stroke-linecap:butt;stroke-linejoin:miter;stroke-miterlimit:4;stroke-dasharray:none;stroke-opacity:1"
         d="m 1133.7119,1214.8227 c 0,0 26.6824,-5.52 72.1392,-0.4692"
         id="path4977"
         inkscape:connector-curvature="0"
         sodipodi:nodetypes="cc" />
      <path
         sodipodi:nodetypes="csssssc"
         inkscape:connector-curvature="0"
         id="path4979"
         d="m 1021.0211,584.19078 c -30.00003,-4.2857 -55.62098,13.7884 -71.7158,31.9187 -23.00313,25.9123 -7.0763,83.4078 30.20305,98.0096 78.32415,30.6783 112.75965,41.4283 221.05225,48.2248 112.1936,7.0414 224.2344,-12.8199 274.9913,-31.6019 24.1745,-8.9455 75.7636,-28.9566 80.5917,-75.7143 6.0095,-58.199 -70.8368,-66.5511 -70.8368,-66.5511"
         style="fill:none;fill-rule:evenodd;stroke:none;stroke-width:15;stroke-linecap:butt;stroke-linejoin:miter;stroke-miterlimit:4;stroke-dasharray:none;stroke-opacity:1" />
      <text
         transform="matrix(0.99928358,0.03784591,-0.03784591,0.99928358,14.650642,572.87371)"
         sodipodi:linespacing="125%"
         id="text4981"
         style="font-style:normal;font-variant:normal;font-weight:normal;font-stretch:normal;font-size:40px;line-height:125%;font-family:sans-serif;-inkscape-font-specification:'sans-serif, Normal';text-align:start;letter-spacing:0px;word-spacing:0px;writing-mode:lr-tb;text-anchor:start;fill:#000000;fill-opacity:1;stroke:none;stroke-width:1px;stroke-linecap:butt;stroke-linejoin:miter;stroke-opacity:1"
         xml:space="preserve"><textPath
           id="textPath4983"
           xlink:href="#path4936"
           style="font-style:normal;font-variant:normal;font-weight:500;font-stretch:normal;font-size:45px;line-height:125%;font-family:Futura;-inkscape-font-specification:'Futura, Medium';text-align:start;writing-mode:lr-tb;text-anchor:start"><tspan
   style="font-style:normal;font-variant:normal;font-weight:500;font-stretch:normal;font-size:50px;line-height:125%;font-family:Futura;-inkscape-font-specification:'Futura, Medium';text-align:start;writing-mode:lr-tb;text-anchor:start"
   id="tspan4985">               G</tspan>lobal <tspan
   style="font-style:normal;font-variant:normal;font-weight:500;font-stretch:normal;font-size:50px;line-height:125%;font-family:Futura;-inkscape-font-specification:'Futura, Medium';text-align:start;writing-mode:lr-tb;text-anchor:start"
   id="tspan4987">L</tspan>earning <tspan
   style="font-style:normal;font-variant:normal;font-weight:500;font-stretch:normal;font-size:50px;line-height:125%;font-family:Futura;-inkscape-font-specification:'Futura, Medium';text-align:start;writing-mode:lr-tb;text-anchor:start"
   id="tspan4989">C</tspan>ommons</textPath></text>
    </g>
  </g>
</svg>
