<?xml version="1.0" encoding="UTF-8" standalone="no"?>
<!-- Created with Inkscape (http://www.inkscape.org/) -->

<svg
   xmlns:dc="http://purl.org/dc/elements/1.1/"
   xmlns:cc="http://creativecommons.org/ns#"
   xmlns:rdf="http://www.w3.org/1999/02/22-rdf-syntax-ns#"
   xmlns:svg="http://www.w3.org/2000/svg"
   xmlns="http://www.w3.org/2000/svg"
   xmlns:xlink="http://www.w3.org/1999/xlink"
   xmlns:sodipodi="http://sodipodi.sourceforge.net/DTD/sodipodi-0.dtd"
   xmlns:inkscape="http://www.inkscape.org/namespaces/inkscape"
   width="210mm"
   height="297mm"
   viewBox="0 0 744.09448819 1052.3622047"
   id="svg4761"
   version="1.1"
   inkscape:version="0.91 r13725"
   sodipodi:docname="GLClogo_outlined_raw.svg">
  <defs
     id="defs4763" />
  <sodipodi:namedview
     id="base"
     pagecolor="#ffffff"
     bordercolor="#666666"
     borderopacity="1.0"
     inkscape:pageopacity="0.0"
     inkscape:pageshadow="2"
     inkscape:zoom="0.98994949"
     inkscape:cx="478.96917"
     inkscape:cy="726.06994"
     inkscape:document-units="px"
     inkscape:current-layer="g4876"
     showgrid="false"
     inkscape:window-width="1611"
     inkscape:window-height="1001"
     inkscape:window-x="13"
     inkscape:window-y="12"
     inkscape:window-maximized="0"
     showguides="true" />
  <metadata
     id="metadata4766">
    <rdf:RDF>
      <cc:Work
         rdf:about="">
        <dc:format>image/svg+xml</dc:format>
        <dc:type
           rdf:resource="http://purl.org/dc/dcmitype/StillImage" />
        <dc:title></dc:title>
      </cc:Work>
    </rdf:RDF>
  </metadata>
  <g
     inkscape:label="Layer 1"
     inkscape:groupmode="layer"
     id="layer1">
    <g
       id="g4876"
       transform="translate(-927.99712,-798.44527)"
       style="stroke-width:11;stroke-miterlimit:4;stroke-dasharray:none">
      <path
         sodipodi:nodetypes="csssssc"
         inkscape:connector-curvature="0"
         id="path4936"
         d="m 1021.0211,584.19078 c -30.00003,-4.2857 -55.62098,13.7884 -71.7158,31.9187 -23.00313,25.9123 -7.0763,83.4078 30.20305,98.0096 78.32415,30.6783 112.75965,41.4283 221.05225,48.2248 112.1936,7.0414 224.2344,-12.8199 274.9913,-31.6019 24.1745,-8.9455 75.7636,-28.9566 80.5917,-75.7143 6.0095,-58.199 -70.8368,-66.5511 -70.8368,-66.5511"
         style="fill:none;fill-rule:evenodd;stroke:none;stroke-width:15;stroke-linecap:butt;stroke-linejoin:miter;stroke-miterlimit:4;stroke-dasharray:none;stroke-opacity:1" />
      <g
         id="g3568"
         transform="translate(816.20326,143.44166)">
        <path
           sodipodi:nodetypes="cccccccsssccccsscscsccsccsccccccccccccccccccccccc"
           inkscape:connector-curvature="0"
           id="path4878"
           d="m 1463.711,1289.748 c -56.7171,13.6826 -116.4323,25.9194 -174.1941,10.6885 -27.7919,-5.0253 -66.8752,-16.9325 -84.6574,-23.3153 -20.896,-5.5991 4.8431,-42.3841 10.5471,-89.1545 15.8871,-41.5535 13.1889,-63.644 23.1409,-108.6662 7.2978,-25.1714 5.4582,-69.3134 -6.5193,-89.52207 -10.7223,-21.1229 -27.8655,-47.27681 -47.2653,-56.29266 -31.4444,-22.25709 -93.6348,0.99472 -79.3025,9.0928 6.7135,3.79334 39.5915,19.28056 43.5586,28.18419 0,0 -10.1779,26.8722 -15.9238,23.18785 -8.7184,-5.59033 -53.125,-31.38887 -71.1634,-13.47219 -28.8375,25.88188 0.4366,73.39548 37.5892,44.61648 -11.7728,-6.7057 -24.8748,-9.159 -6.4261,-24.0694 0,0 34.6617,25.183 56.8683,33.94 1.862,15.1852 -4.9359,23.2609 -4.9359,23.2609 -8.1536,-3.459 -24.5452,-21.8493 -25.9154,-10.9102 -3.0269,24.1656 -37.0395,67.5499 -61.4822,90.9089 15.1717,8.7594 46.8236,11.7069 60.4805,17.8424 5.1133,2.2972 -3.1469,9.7276 -10.417,13.925 -7.8238,5.6029 -14.6864,3.6079 -20.004,2.0958 -5.3176,-1.5122 -5.9359,18.882 -5.9359,18.882 11.1028,-1.1025 41.867,2.413 53.4474,12.4694 -3.5246,12.6904 -1.4881,28.2916 -6.2283,22.177 -13.592,-17.5327 -39.4278,-14.0105 -47.205,-3.3624 -22.2719,30.9149 3.204,55.419 26.9122,31.6077 8.1518,0.3828 12.6637,2.8947 12.4487,6.1662 -0.4044,6.1525 -10.3245,40.7299 -15.7393,41.9153 -10.9711,-5.0547 -23.4109,-7.3971 -43.6702,-8.485 -38.7415,-12.8112 -39.2887,-46.5374 -28.319,-71.803 10.1512,-15.4585 16.9242,-14.0958 27.9257,-25.7038 4.2201,-14.1391 8.8992,-23.8794 5.421,-32.46 -3.6282,-4.7183 -40.5914,-13.9823 -58.6143,-27.2869 -2.8777,-5.4926 32.0695,-48.8419 63.1791,-72.6882 8.7711,-8.9884 -53.2174,-7.501 -68.9449,-37.8668 -10.45689,-18.2222 -16.41012,-62.70519 5.6711,-83.58365 28.2993,-26.59556 58.5257,-12.40393 68.1833,-12.94531 29.5397,-38.29721 57.7634,-46.387 89.9415,-46.20928 24.1799,0.77921 63.5828,7.76232 94.509,48.56871 5.6663,4.75424 6.4961,-14.0249 21.5407,-31.82907 0,-17.51484 2.5803,-40.30371 32.4098,-43.15882 24.9094,3.2858 -12.918,-13.91327 18.5338,-36.44414 18.6814,-3.972 43.2064,1.94821 32.8341,33.38667 0.5218,9.28886 29.426,-8.03605 36.0041,27.5012 30.3228,5.36257 33.7685,49.37113 33.7685,49.37113 28.637,-11.09585 88.6841,1.64961 91.98,26.48674 3.1733,17.84842 15.9031,87.71342 -2.8826,129.52202 -17.0739,40.2424 -47.046,21.7959 -47.046,37.9633 5.8347,37.8295 5.993,71.5011 15.9076,105.8231 9.7223,36.284 13.7938,47.9083 -30.0103,59.6456 z"
           style="fill:none;fill-rule:evenodd;stroke:#000000;stroke-width:15;stroke-linecap:butt;stroke-linejoin:miter;stroke-miterlimit:4;stroke-dasharray:none;stroke-opacity:1" />
        <path
           inkscape:connector-curvature="0"
           id="path4880"
           d="m 1283.0261,881.28401 c 0,0 67.9269,9.84304 119.4577,-0.70307"
           style="fill:none;fill-rule:evenodd;stroke:#000000;stroke-width:15;stroke-linecap:butt;stroke-linejoin:miter;stroke-miterlimit:4;stroke-dasharray:none;stroke-opacity:1" />
        <path
           sodipodi:nodetypes="ccccccccc"
           inkscape:connector-curvature="0"
           id="path4882"
           d="m 1476.7895,1074.9452 c -3.0718,-4.1858 -7.842,-35.671 -10.9537,-58.613 -0.6344,-8.5658 -2.1529,-33.04158 -1.7773,-43.62775 1.3075,-6.04402 9.8955,-12.07729 21.1714,-10.20224 11.5807,-0.005 19.4675,8.21333 22.0152,19.28604 1.8371,5.93982 1.98,16.76045 2.0276,23.11185 -0.977,20.5153 1.0765,38.6316 -1.4156,56.7478 -3.6115,8.1254 -9.0217,10.6104 -14.4755,14.9146 -6.5432,2.1294 -14.0519,1.0268 -16.5921,-1.6173 z"
           style="fill:none;fill-rule:evenodd;stroke:#000000;stroke-width:15;stroke-linecap:butt;stroke-linejoin:miter;stroke-miterlimit:4;stroke-dasharray:none;stroke-opacity:1" />
        <ellipse
           ry="22.970648"
           rx="22.465572"
           cy="972.02515"
           cx="1383.9587"
           id="path4886"
           style="fill:none;fill-opacity:1;stroke:#000000;stroke-width:6;stroke-miterlimit:4;stroke-dasharray:none;stroke-opacity:1" />
        <path
           id="ellipse4910"
           d="m 1460.8253,876.92297 a 14.754791,14.756604 0 0 1 -14.7547,14.75661 14.754791,14.756604 0 0 1 -14.7548,-14.75661 14.754791,14.756604 0 0 1 14.7548,-14.7566 14.754791,14.756604 0 0 1 14.7547,14.7566 z"
           style="fill:#000000;fill-opacity:1;stroke:#000000;stroke-width:3.24776316;stroke-miterlimit:4;stroke-dasharray:none;stroke-opacity:1"
           transform="matrix(0.99747933,0.07095766,-0.07418333,0.99724462,0,0)"
           inkscape:connector-curvature="0" />
        <path
           inkscape:connector-curvature="0"
           id="path4912"
           d="m 1285.6791,963.41727 c 0,0 13.6371,17.17259 45.4569,13.13198"
           style="fill:none;fill-rule:evenodd;stroke:#000000;stroke-width:7;stroke-linecap:round;stroke-linejoin:miter;stroke-miterlimit:4;stroke-dasharray:none;stroke-opacity:1" />
        <path
           inkscape:connector-curvature="0"
           id="path4914"
           d="m 1307.9025,953.27514 c 0,0 11.6167,20.70812 22.2233,22.72843"
           style="fill:none;fill-rule:evenodd;stroke:#000000;stroke-width:7;stroke-linecap:round;stroke-linejoin:miter;stroke-miterlimit:4;stroke-dasharray:none;stroke-opacity:1" />
        <path
           inkscape:connector-curvature="0"
           id="path4916"
           d="m 1303.3568,997.23704 c 0,0 17.6776,-14.64718 27.2741,-18.68779"
           style="fill:none;fill-rule:evenodd;stroke:#000000;stroke-width:7;stroke-linecap:round;stroke-linejoin:miter;stroke-miterlimit:4;stroke-dasharray:none;stroke-opacity:1" />
        <path
           inkscape:connector-curvature="0"
           id="path4918"
           d="m 1298.4895,1029.1479 c 0,0 16.9643,6.9643 26.0715,6.9643 9.1071,0 28.2142,-9.2857 31.7857,-9.8215 3.5714,-0.5357 36.4285,-11.0714 37.1428,-11.0714 0.7143,0 9.8215,-6.7857 6.7857,1.9643 -3.0357,8.75 -17.8571,30.7143 -32.1428,36.25 -14.2857,5.5357 -30.7143,7.6786 -35.1786,4.1071 -4.4643,-3.5714 -18.3928,-14.2857 -20.1786,-16.4285 -1.7857,-2.1429 -6.7857,-7.5 -8.5714,-8.9286 -1.7857,-1.4286 -5.7143,-3.0357 -5.7143,-3.0357 z"
           style="fill:none;fill-rule:evenodd;stroke:#000000;stroke-width:7;stroke-linecap:round;stroke-linejoin:round;stroke-miterlimit:4;stroke-dasharray:none;stroke-opacity:1" />
        <path
           sodipodi:nodetypes="csssssc"
           inkscape:connector-curvature="0"
           id="path4924"
           d="m 1497.4286,1230.9336 c 0,0 76.8463,8.3521 70.8368,66.5511 -4.8281,46.7577 -56.4172,66.7688 -80.5917,75.7143 -50.7569,18.782 -162.7977,38.6433 -274.9913,31.6019 -108.2926,-6.7965 -142.7281,-17.5465 -221.05222,-48.2248 -37.27935,-14.6018 -53.20618,-72.0973 -30.20305,-98.0096 16.09482,-18.1303 41.71577,-36.2044 71.71577,-31.9187"
           style="fill:none;fill-rule:evenodd;stroke:#000000;stroke-width:15;stroke-linecap:butt;stroke-linejoin:miter;stroke-miterlimit:4;stroke-dasharray:none;stroke-opacity:1" />
        <path
           sodipodi:nodetypes="cc"
           inkscape:connector-curvature="0"
           id="path4926"
           d="m 1133.7119,1216.8227 c 0,0 26.6824,-5.52 72.1392,-0.4692"
           style="fill:none;fill-rule:evenodd;stroke:#000000;stroke-width:15;stroke-linecap:butt;stroke-linejoin:miter;stroke-miterlimit:4;stroke-dasharray:none;stroke-opacity:1" />
        <text
           xml:space="preserve"
           style="font-style:normal;font-variant:normal;font-weight:normal;font-stretch:normal;font-size:40px;line-height:125%;font-family:sans-serif;-inkscape-font-specification:'sans-serif, Normal';text-align:start;letter-spacing:0px;word-spacing:0px;writing-mode:lr-tb;text-anchor:start;fill:#000000;fill-opacity:1;stroke:none;stroke-width:1px;stroke-linecap:butt;stroke-linejoin:miter;stroke-opacity:1"
           id="text4948"
           sodipodi:linespacing="125%"
           transform="matrix(0.99928358,0.03784591,-0.03784591,0.99928358,14.650642,572.87371)"><textPath
             style="font-style:normal;font-variant:normal;font-weight:500;font-stretch:normal;font-size:45px;line-height:125%;font-family:Futura;-inkscape-font-specification:'Futura, Medium';text-align:start;writing-mode:lr-tb;text-anchor:start"
             xlink:href="#path4936"
             id="textPath4950"><tspan
   id="tspan4956"
   style="font-style:normal;font-variant:normal;font-weight:500;font-stretch:normal;font-size:50px;line-height:125%;font-family:Futura;-inkscape-font-specification:'Futura, Medium';text-align:start;writing-mode:lr-tb;text-anchor:start">               G</tspan>lobal <tspan
   id="tspan4954"
   style="font-style:normal;font-variant:normal;font-weight:500;font-stretch:normal;font-size:50px;line-height:125%;font-family:Futura;-inkscape-font-specification:'Futura, Medium';text-align:start;writing-mode:lr-tb;text-anchor:start">L</tspan>earning <tspan
   id="tspan4952"
   style="font-style:normal;font-variant:normal;font-weight:500;font-stretch:normal;font-size:50px;line-height:125%;font-family:Futura;-inkscape-font-specification:'Futura, Medium';text-align:start;writing-mode:lr-tb;text-anchor:start">C</tspan>ommons</textPath></text>
      </g>
      <path
         style="fill:none;fill-rule:evenodd;stroke:none;stroke-width:15;stroke-linecap:butt;stroke-linejoin:miter;stroke-miterlimit:4;stroke-dasharray:none;stroke-opacity:1"
         d="m 1841.0211,567.04792 c -30,-4.2857 -55.621,13.7884 -71.7158,31.9187 -23.0031,25.9123 -7.0763,83.4078 30.2031,98.0096 78.3241,30.6783 112.7596,41.4283 221.0522,48.2248 112.1936,7.0414 224.2344,-12.8199 274.9913,-31.6019 24.1745,-8.9455 75.7636,-28.9566 80.5917,-75.7143 6.0095,-58.199 -70.8368,-66.5511 -70.8368,-66.5511"
         id="path3464"
         inkscape:connector-curvature="0"
         sodipodi:nodetypes="csssssc" />
      <g
         transform="matrix(0.99928358,0.03784591,-0.03784591,0.99928358,10.366161,565.83238)"
         style="font-style:normal;font-variant:normal;font-weight:normal;font-stretch:normal;font-size:40px;line-height:125%;font-family:sans-serif;-inkscape-font-specification:'sans-serif, Normal';text-align:start;letter-spacing:0px;word-spacing:0px;writing-mode:lr-tb;text-anchor:start;fill:#000000;fill-opacity:1;stroke:none;stroke-width:1px;stroke-linecap:butt;stroke-linejoin:miter;stroke-opacity:1"
         id="text3466">
        <g
           id="g3534">
          <path
             inkscape:connector-curvature="0"
             id="path3442"
             d="m 2159.9102,794.36719 c -2.8359,0.20791 -5.6307,0.6325 -8.3145,1.20312 l -1.5332,0.32422 -1.2754,0.91406 c -8.8088,6.31027 -13.7339,13.0756 -15.5391,19.82032 -1.6068,6.00374 -0.5736,11.33555 0.6758,15.25195 l -0.018,0.002 c -16.7783,1.60593 -27.8841,9.82429 -33.3007,20.03321 -4.935,9.30111 -5.7265,19.39648 -5.836,28.0332 -6.9259,8.84671 -10.8649,17.51762 -13.4277,23.32226 -31.7129,-37.15079 -70.9332,-44.22449 -94.9375,-44.99804 l -0.1,-0.004 -0.1016,0 c -32.4328,-0.17913 -63.3182,9.07848 -93.0879,45.80859 -1.5618,-0.20566 -2.9731,-0.36536 -6.3066,-0.96874 -4.753,-0.86032 -10.7754,-1.84139 -17.5938,-1.92774 -13.6366,-0.1727 -30.7086,3.61108 -46.3144,18.27734 l -0.01,0.008 -0.01,0.008 c -13.2172,12.49727 -17.4229,30.975 -17.3848,48.25391 0.038,17.20566 4.0997,33.49375 10.2891,44.35735 9.7722,18.6974 31.4057,25.9235 48.2285,30.5977 6.348,1.7638 10.8663,2.8892 15.1113,4.043 -13.7187,11.5656 -27.278,25.4953 -37.8789,38.0312 -6.2827,7.4295 -11.4997,14.2745 -15.1387,19.9199 -1.8195,2.8227 -3.2478,5.3061 -4.2773,7.7481 -0.5148,1.221 -0.9488,2.4208 -1.2031,3.9277 -0.2543,1.507 -0.517,3.5662 0.8574,6.1895 l 0.8008,1.5273 1.3886,1.0254 c 10.3133,7.6133 24.402,13.2149 36.4805,17.834 6.0393,2.3095 11.5635,4.3305 15.5957,5.9785 1.8624,0.7612 3.3003,1.4186 4.3301,1.9414 0.4113,1.9936 0.4066,4.2982 -0.4551,7.8984 -0.9733,4.0668 -2.9395,9.6547 -4.875,15.9043 -4.2736,4.2445 -7.7268,6.4139 -12.0176,9.4239 -4.6889,3.2892 -10.0542,7.8668 -15.6054,16.3203 l -0.3536,0.5371 -0.2578,0.5918 c -5.9885,13.7928 -9.062,30.0874 -4.8359,45.5371 4.2261,15.4497 16.4563,29.3548 37.6797,36.373 l 0.9531,0.3165 1,0.053 c 19.8478,1.0658 31.1196,3.287 40.9336,7.8086 l 2.2852,1.0527 2.457,-0.539 c 4.1636,-0.9115 5.4023,-3.0757 6.6465,-4.7618 1.2441,-1.686 2.2175,-3.4763 3.1875,-5.4785 1.9399,-4.0043 3.7558,-8.8282 5.4218,-13.7949 1.6661,-4.9668 3.1529,-10.037 4.2715,-14.3438 1.1186,-4.3067 1.8893,-7.2892 2.0918,-10.371 0.3409,-5.1868 -3.543,-9.4863 -7.1543,-11.334 -3.6113,-1.8478 -7.6468,-2.592 -12.4258,-2.8164 l -3.3203,-0.1543 -2.3457,2.3554 c -4.9994,5.0212 -9.5378,6.941 -12.8125,7.2871 -3.2746,0.3462 -5.3925,-0.5785 -7.0898,-2.3964 -3.392,-3.6332 -5.3975,-13.2148 4.3711,-26.793 1.7966,-2.447 8.1795,-5.7851 15.3711,-5.8008 7.2001,-0.016 14.6026,2.5882 19.8398,9.3438 0.986,1.2718 1.861,2.7927 5.0586,3.8496 1.5988,0.5284 4.0347,0.5665 5.9317,-0.2715 1.897,-0.8381 3.0091,-2.1395 3.666,-3.1309 2.6273,-3.9653 2.0091,-5.6762 2.2949,-8.2519 0.5716,-5.1514 0.9811,-11.7363 2.4316,-16.959 l 1.2676,-4.5645 -3.5762,-3.1054 c -7.946,-6.9004 -19.2722,-10.0086 -30.4218,-12.125 -7.1023,-1.3482 -13.8393,-2.0662 -19.6875,-2.2774 0.075,-0.5601 0.023,-0.6243 0.1152,-1.1777 0.1337,-0.801 0.2738,-1.0456 0.4434,-1.7363 5.743,1.0109 13.7333,1.0837 21.33,-4.2754 4.0749,-2.3957 8.1416,-5.3283 11.293,-8.9317 1.6355,-1.87 3.3094,-3.8072 3.8809,-7.4785 0.2857,-1.8356 0.046,-4.3068 -1.1504,-6.3769 -1.1968,-2.0701 -3.0655,-3.4204 -4.7383,-4.1719 -8.3946,-3.7714 -19.6922,-5.8393 -31.0938,-8.4121 -6.8966,-1.5563 -13.6269,-3.3181 -19.3046,-5.211 10.6197,-11.0437 21.9656,-24.4541 31.7285,-38.1836 10.776,-15.1542 19.73,-30.1047 23.0097,-43.6738 4.595,3.2414 9.8816,8.5456 16.5743,11.3848 l 5.0996,2.1621 3.5683,-4.2363 c 0,0 2.6141,-3.2305 4.4512,-8.1368 1.8371,-4.9062 3.2761,-12.0207 2.1914,-20.8671 l -0.543,-4.4278 -4.1504,-1.6367 c -20.1193,-7.9339 -55.2109,-33.03122 -55.2109,-33.03122 l -4.6523,-3.3789 -4.4707,3.61328 c -5.0279,4.0636 -8.4054,7.4257 -10.4649,11.66211 -2.0595,4.23641 -1.5151,10.28793 1.0195,13.73043 1.5803,2.1463 3.3567,3.4971 5.1661,4.6504 -3.4992,1.1954 -6.6385,1.5086 -9.377,1.2129 -5.3119,-0.5735 -9.5979,-3.3301 -12.6738,-7.5684 -6.1518,-8.47639 -6.8914,-22.24382 4.8906,-32.8183 l 0.1406,-0.12695 0.1348,-0.13477 c 2.7795,-2.76073 6.6652,-4.04949 12.2324,-4.06055 5.5672,-0.011 12.4132,1.47373 19.1465,3.76172 13.4667,4.57599 26.5496,12.26196 30.4512,14.76367 2.8853,1.85014 7.1313,1.66338 9.5254,0.5586 2.3941,-1.10479 3.7914,-2.53871 5.0644,-3.98438 2.5461,-2.89133 4.4541,-6.23712 6.2246,-9.63281 3.5411,-6.79138 6.1719,-13.78516 6.1719,-13.78516 l 1.0938,-2.88867 -1.2579,-2.82031 c -2.2302,-5.00543 -5.7903,-7.55233 -9.9336,-10.60938 -4.1432,-3.05704 -9.025,-6.0482 -13.9453,-8.85937 -7.3395,-4.19336 -12.5419,-6.77088 -17.0351,-9.09375 3.545,-1.78783 8.4169,-3.75988 14.6621,-5.1875 16.3502,-3.73759 37.9987,-3.42344 50.8125,5.64648 l 0.5547,0.39258 0.6172,0.28711 c 15.904,7.39125 33.3454,32.41283 43.7382,52.88672 l 0.1114,0.2168 0.125,0.21093 c 4.8534,8.18876 8.4557,23.56529 9.455,39.54489 0.9994,15.9796 -0.412,32.7668 -3.6874,44.0645 l -0.066,0.2343 -0.053,0.2364 c -10.1252,45.806 -7.3549,67.1447 -22.8242,107.6054 l -0.3281,0.8594 -0.1114,0.9121 c -2.7165,22.2741 -10.3244,42.5861 -15.0097,58.8477 -2.3427,8.1308 -4.1457,15.1841 -3.5332,22.1562 0.3062,3.4861 1.3726,7.1319 3.7675,10.1758 2.3949,3.0439 5.943,5.1116 9.7325,6.127 l -0.5918,-0.1856 c 18.2126,6.5373 56.9277,18.3592 85.5195,23.5645 59.8746,15.7112 120.8082,3.0015 177.625,-10.7051 l 0.09,-0.024 0.092,-0.023 c 11.2781,-3.0219 19.7712,-6.0539 26.3946,-9.9473 6.6233,-3.8933 11.5062,-9.0772 13.789,-15.3496 4.5657,-12.5448 -0.026,-25.4525 -4.8711,-43.5351 l -0.018,-0.07 -0.021,-0.068 c -9.4646,-32.7642 -9.7914,-65.7997 -15.5586,-103.7988 0.04,-0.016 0.021,-0.011 0.068,-0.029 1.5331,-0.5845 5.9424,-1.2299 11.3399,-2.5977 10.7843,-2.7328 25.643,-10.3881 34.959,-32.291 10.2589,-22.8933 11.5509,-51.6342 10.2929,-77.10543 -1.2594,-25.50159 -5.321,-47.83577 -6.9003,-56.71875 l 0.051,0.32617 c -1.2036,-9.0703 -7.3314,-16.13233 -14.9101,-21.36328 -7.5788,-5.23095 -17.0029,-9.01522 -27.1387,-11.63086 -16.9511,-4.3744 -35.7216,-5.58422 -51.293,-2.06445 -0.8935,-4.45314 -2.2737,-10.00738 -4.6191,-15.89258 -4.6551,-11.6807 -13.551,-25.11967 -29.0059,-29.99219 -2.0293,-7.51701 -5.1841,-13.29679 -9.3339,-17.30468 -4.9938,-4.82296 -10.9979,-6.84364 -15.9942,-7.62696 -3.1545,-0.49456 -5.7795,-0.59481 -7.9922,-0.64648 1.3166,-6.10442 1.422,-11.61402 0.2793,-16.57227 -1.5352,-6.66123 -5.5245,-12.05337 -10.4629,-15.4375 -7.4075,-5.07618 -16.2894,-6.38936 -24.7968,-5.76562 z m 0.8906,15.08593 c 6.1219,-0.31735 12.0804,0.75889 15.4277,3.05274 2.2316,1.52924 3.5964,3.2649 4.3262,6.43164 0.7298,3.16674 0.6081,8.04592 -1.6875,15.00391 l -0.4453,1.35156 0.08,1.41992 c 0.1776,3.16193 2.5999,7.00892 5.2109,8.49219 2.611,1.48326 4.7083,1.62523 6.582,1.7793 3.7474,0.30813 7.1465,0.13628 10.2637,0.625 3.1172,0.48871 5.6063,1.38195 7.8984,3.5957 2.2922,2.21375 4.7164,6.14264 6.1621,13.95312 l 0.9473,5.11524 5.1211,0.90429 c 11.7448,2.07707 18.4241,11.62525 22.5937,22.08789 4.1697,10.46265 5.004,20.48438 5.004,20.48438 l 0.7871,10.05078 9.4004,-3.64258 c 11.7697,-4.56035 33.1729,-4.53966 50.9082,0.0371 8.8676,2.28839 16.8632,5.65366 22.3652,9.45117 5.5019,3.79752 8.1162,7.64393 8.5605,10.99219 l 0.024,0.16211 0.027,0.16406 c 1.594,8.96544 5.4852,30.48689 6.6875,54.83204 1.2024,24.34513 -0.5322,51.40073 -9.0254,70.30273 l -0.033,0.072 -0.031,0.072 c -7.7597,18.2893 -16.4038,21.5243 -24.8633,23.668 -4.2297,1.0718 -8.3797,1.3616 -13,3.1231 -2.3102,0.8807 -4.949,2.3401 -6.9258,4.9394 -1.9768,2.5993 -2.8515,5.9825 -2.8515,9.1621 l 0,0.5742 0.086,0.5684 c 5.7356,37.1871 5.8436,71.2037 16.1152,106.7617 l -0.039,-0.1406 c 4.877,18.2014 7.1826,29.2488 5.2636,34.5215 -0.9595,2.6363 -2.6636,4.8276 -7.2929,7.5488 -4.6197,2.7155 -12.0325,5.5324 -22.6211,8.3731 -56.5027,13.6274 -114.8655,25.3399 -170.3965,10.6972 l -0.2871,-0.074 -0.291,-0.053 c -26.9622,-4.8753 -66.1742,-16.7899 -83.459,-22.9942 l -0.291,-0.1054 -0.3008,-0.08 c -1.4346,-0.3844 -1.6533,-0.6919 -1.8281,-0.9141 -0.1749,-0.2222 -0.4813,-0.7322 -0.6114,-2.2129 -0.2601,-2.9614 0.8108,-9.0797 3.0039,-16.6914 4.3239,-15.0068 12.2256,-36.1114 15.3125,-60.1738 15.9679,-42.1336 13.476,-65.0039 23.1934,-108.9649 l -0.1211,0.4688 c 4.0223,-13.8737 5.3424,-31.7414 4.252,-49.1777 -1.0905,-17.43642 -4.3974,-34.236 -11.5215,-46.25591 -10.9467,-21.49111 -27.4983,-48.11814 -49.9121,-58.9043 -18.5781,-12.8168 -43.4445,-12.02201 -62.295,-7.71289 -9.5114,2.17428 -17.4539,5.17092 -23.1484,9.09961 -2.8472,1.96435 -5.5989,3.98918 -6.873,8.45313 -0.6371,2.23197 -0.444,5.24472 0.7695,7.52734 1.2134,2.28263 3.014,3.70859 4.75,4.68945 4.1161,2.32573 13.5088,6.86269 22.7773,12.15821 4.6343,2.64776 9.1355,5.43675 12.4824,7.90625 1.4256,1.05185 2.4609,2.07126 3.336,2.94336 -0.9856,2.31739 -2.328,5.32031 -3.8067,8.15625 -1.1602,2.22523 -2.274,3.82014 -3.2519,5.17382 -6.1681,-3.73053 -16.7567,-9.68491 -29.8867,-14.14648 -7.7129,-2.62085 -15.8972,-4.57664 -24.002,-4.56055 -8.0554,0.016 -16.4222,2.21069 -22.6504,8.32227 -16.8864,15.30683 -17.3877,38.12207 -6.8593,52.62894 5.282,7.278 13.4781,12.6219 23.2031,13.6719 9.725,1.0499 20.545,-2.2394 31,-10.3379 l 8.8867,-6.8829 -9.7676,-5.5625 c -3.2921,-1.87516 -6.4088,-3.32647 -8.7051,-4.57028 -1.548,-0.83854 -1.8451,-1.15691 -2.3691,-1.5625 0.3512,-0.47948 0.741,-0.94246 1.5293,-1.77343 9.2859,6.56691 30.781,21.12661 49.082,29.28121 0.019,2.9075 -0.4256,5.0392 -0.9336,6.9961 -2.795,-2.0562 -4.675,-3.4143 -8.039,-5.7441 -2.9627,-2.0518 -5.5841,-4.1227 -10.2442,-4.7246 -2.33,-0.301 -5.8331,0.2348 -8.2929,2.4551 -2.4599,2.2203 -3.2879,5.0364 -3.5899,7.4472 -1.1517,9.1946 -9.7591,26.0003 -21.3808,42.3438 -11.6218,16.3435 -26.041,32.7985 -37.8418,44.0762 l -7.2344,6.914 8.666,5.0039 c 9.2262,5.3268 21.2767,8.1 32.9082,10.7246 7.9281,1.789 15.5786,3.5042 21.4082,5.1661 -1.3542,1.0287 -2.8448,2.0723 -4.2519,2.8847 l -0.3184,0.1836 -0.2988,0.2149 c -5.4508,3.9034 -8.2319,2.5009 -13.586,0.9785 -2.8162,-0.8009 -6.5,0.1504 -8.4648,1.6933 -1.9648,1.543 -2.8392,3.1575 -3.5332,4.6211 -1.3881,2.9273 -1.9457,5.7441 -2.4121,8.5391 -0.9328,5.59 -1.0742,11.0156 -1.0742,11.0156 l -0.2579,8.5352 8.4961,-0.8438 c 4.0936,-0.4065 14.5011,0.075 24.4043,1.9551 7.7181,1.465 15.2998,4.0192 20.0352,6.5703 -0.3532,1.9667 -0.836,3.9444 -1.043,5.7344 -7.0602,-4.7292 -15.166,-6.8427 -22.7168,-6.8262 -11.06,0.024 -21.4735,3.7626 -27.4629,11.9629 l -0.014,0.02 -0.016,0.02 c -12.478,17.3204 -12.886,35.438 -3.1836,45.83 4.8513,5.1961 12.1569,7.8644 19.6309,7.0743 6.4401,-0.6809 12.8984,-3.8424 18.9551,-9.0704 0.8037,0.1292 1.4688,0.2157 2.0117,0.3633 -0.2595,1.3714 -0.4131,2.4268 -1.0957,5.0547 -1.0244,3.9439 -2.4313,8.747 -3.9727,13.3418 -1.5413,4.5949 -3.2455,9.0208 -4.7011,12.0254 -0.1241,0.2561 -0.1784,0.2971 -0.2989,0.5313 -10.5579,-3.9292 -22.7013,-5.9788 -39.664,-6.9532 -16.9747,-5.8106 -24.264,-15.0448 -27.211,-25.8183 -2.9442,-10.7635 -0.8853,-23.7097 3.9317,-35.0567 4.3591,-6.4987 7.4109,-8.986 11.2676,-11.6914 3.9857,-2.796 9.2878,-5.9205 15.4179,-12.3886 l 1.2305,-1.3008 0.5117,-1.7149 c 2.0278,-6.7939 4.2765,-12.7438 5.7051,-18.7129 1.4286,-5.969 2.0306,-12.4179 -0.5195,-18.709 l -0.3828,-0.9453 -0.6231,-0.8086 c -1.9676,-2.5588 -3.5151,-3.1242 -5.2812,-4.0507 -1.7661,-0.9265 -3.7395,-1.7872 -5.9805,-2.7032 -4.4821,-1.8318 -10.0062,-3.8442 -15.9141,-6.1035 -9.8707,-3.7748 -20.6523,-8.368 -28.4941,-13.0937 0.5402,-0.9906 0.8444,-1.6985 1.6973,-3.0215 3.0764,-4.7726 8.0012,-11.2861 13.9843,-18.3613 11.9662,-14.1505 28.2805,-30.7041 43.1699,-42.1172 l 0.4297,-0.3282 0.377,-0.3867 c 1.3011,-1.3333 2.8205,-3.4517 2.9668,-6.4453 0.1462,-2.9936 -1.4502,-5.6886 -2.8535,-7.0801 -2.8066,-2.783 -5.1924,-3.3446 -7.9825,-4.2695 -5.5801,-1.8497 -12.8428,-3.3814 -20.7773,-5.5859 -15.869,-4.4092 -33.0177,-11.6086 -39.0078,-23.1739 l -0.074,-0.1425 -0.08,-0.1407 c -4.223,-7.3589 -8.3386,-22.34035 -8.3711,-37.0781 -0.032,-14.7289 3.8211,-28.9235 12.6738,-37.30664 l 0.01,-0.006 c 12.6912,-11.92416 24.8817,-14.34198 35.8457,-14.20312 5.4829,0.0694 10.5963,0.87221 15.1113,1.68945 4.515,0.81724 8.043,1.84772 12.5039,1.59766 l 3.4239,-0.19336 2.0957,-2.71485 c 28.4093,-36.83172 53.0122,-43.44267 83.8613,-43.28711 23.0056,0.75516 59.3895,6.95836 88.6719,45.59571 l 0.5097,0.67383 0.6485,0.54101 c 1.674,1.40459 4.6805,2.90062 7.9179,2.39258 3.2375,-0.50804 5.2021,-2.4374 6.3711,-3.88086 2.3381,-2.88691 3.2365,-5.49425 4.6446,-8.67969 2.8161,-6.37087 6.4291,-14.60339 13.1562,-22.56445 l 1.7715,-2.09766 0,-2.74414 c 0,-8.38912 0.8116,-17.28254 4.1426,-23.56054 3.2817,-6.18521 8.3564,-10.71295 20.9843,-12.04102 2.7799,0.33593 5.091,0.50999 7.4922,0.16992 1.3811,-0.19558 2.9274,-0.55012 4.6035,-1.625 1.6762,-1.07487 3.2698,-3.13355 3.8555,-5.09765 1.1714,-3.92821 0,-6.03224 -0.5937,-7.68946 -0.5962,-1.65721 -1.2127,-3.02548 -1.7051,-4.39453 -0.9848,-2.73809 -1.4804,-5.04943 -0.7539,-7.76367 0.6724,-2.51236 2.73,-6.02866 8.4922,-10.46094 1.5146,-0.25704 3.0379,-0.51236 4.5703,-0.5918 z m -206.168,394.12108 c 0.3431,0.2828 0.3766,0.4453 0.2676,0.3047 -0.085,-0.1093 -0.182,-0.1967 -0.2676,-0.3047 z m -32.9785,74.7305 c -0.018,0.026 -0.069,0.1318 -0.086,0.1543 -0.1799,0.2437 -0.2362,0.1064 0.086,-0.1543 z"
             style="color:#000000;font-style:normal;font-variant:normal;font-weight:normal;font-stretch:normal;font-size:medium;line-height:normal;font-family:sans-serif;text-indent:0;text-align:start;text-decoration:none;text-decoration-line:none;text-decoration-style:solid;text-decoration-color:#000000;letter-spacing:normal;word-spacing:normal;text-transform:none;direction:ltr;block-progression:tb;writing-mode:lr-tb;baseline-shift:baseline;text-anchor:start;white-space:normal;clip-rule:nonzero;display:inline;overflow:visible;visibility:visible;opacity:1;isolation:auto;mix-blend-mode:normal;color-interpolation:sRGB;color-interpolation-filters:linearRGB;solid-color:#000000;solid-opacity:1;fill:#000000;fill-opacity:1;fill-rule:evenodd;stroke:none;stroke-width:15;stroke-linecap:butt;stroke-linejoin:miter;stroke-miterlimit:4;stroke-dasharray:none;stroke-dashoffset:0;stroke-opacity:1;color-rendering:auto;image-rendering:auto;shape-rendering:auto;text-rendering:auto;enable-background:accumulate"
             transform="matrix(0.99928359,-0.03784591,0.03784591,0.99928359,-855.08483,-523.74461)" />
          <path
             style="fill:none;fill-rule:evenodd;stroke:#000000;stroke-width:15;stroke-linecap:butt;stroke-linejoin:miter;stroke-miterlimit:4;stroke-dasharray:none;stroke-opacity:1"
             d="m 2103.0261,864.14115 c 0,0 67.9269,9.84304 119.4577,-0.70307"
             id="path3444"
             inkscape:connector-curvature="0"
             transform="matrix(0.99928359,-0.03784591,0.03784591,0.99928359,-855.08483,-523.74461)" />
          <path
             style="fill:none;fill-rule:evenodd;stroke:#000000;stroke-width:15;stroke-linecap:butt;stroke-linejoin:miter;stroke-miterlimit:4;stroke-dasharray:none;stroke-opacity:1"
             d="m 2296.7895,1057.8023 c -3.0718,-4.1858 -7.842,-35.671 -10.9537,-58.61296 -0.6344,-8.5658 -2.1529,-33.04158 -1.7773,-43.62775 1.3075,-6.04402 9.8955,-12.07729 21.1714,-10.20224 11.5807,-0.005 19.4675,8.21333 22.0152,19.28604 1.8371,5.93982 1.98,16.76045 2.0276,23.11185 -0.977,20.51526 1.0765,38.63156 -1.4156,56.74776 -3.6115,8.1254 -9.0217,10.6104 -14.4755,14.9146 -6.5432,2.1294 -14.0519,1.0268 -16.5921,-1.6173 z"
             id="path3446"
             inkscape:connector-curvature="0"
             sodipodi:nodetypes="ccccccccc"
             transform="matrix(0.99928359,-0.03784591,0.03784591,0.99928359,-855.08483,-523.74461)" />
          <ellipse
             style="fill:none;fill-opacity:1;stroke:#000000;stroke-width:6;stroke-miterlimit:4;stroke-dasharray:none;stroke-opacity:1"
             id="ellipse3448"
             cx="2203.9587"
             cy="954.88226"
             rx="22.465572"
             ry="22.970648"
             transform="matrix(0.99928359,-0.03784591,0.03784591,0.99928359,-855.08483,-523.74461)" />
          <path
             inkscape:connector-curvature="0"
             style="fill:#000000;fill-opacity:1;stroke:#000000;stroke-width:3.24776316;stroke-miterlimit:4;stroke-dasharray:none;stroke-opacity:1"
             d="m 2212.09,961.0206 a 14.7318,14.779557 48.073856 0 1 -15.8122,13.66899 14.7318,14.779557 48.073856 0 1 -13.6229,-15.76291 14.7318,14.779557 48.073856 0 1 15.8123,-13.66898 14.7318,14.779557 48.073856 0 1 13.6228,15.7629 z"
             id="path3450"
             transform="matrix(0.99928359,-0.03784591,0.03784591,0.99928359,-855.08483,-523.74461)" />
          <path
             style="fill:none;fill-rule:evenodd;stroke:#000000;stroke-width:7;stroke-linecap:round;stroke-linejoin:miter;stroke-miterlimit:4;stroke-dasharray:none;stroke-opacity:1"
             d="m 2105.6791,946.27441 c 0,0 13.6371,17.17259 45.4569,13.13198"
             id="path3452"
             inkscape:connector-curvature="0"
             transform="matrix(0.99928359,-0.03784591,0.03784591,0.99928359,-855.08483,-523.74461)" />
          <path
             style="fill:none;fill-rule:evenodd;stroke:#000000;stroke-width:7;stroke-linecap:round;stroke-linejoin:miter;stroke-miterlimit:4;stroke-dasharray:none;stroke-opacity:1"
             d="m 2127.9025,936.13228 c 0,0 11.6167,20.70812 22.2233,22.72843"
             id="path3454"
             inkscape:connector-curvature="0"
             transform="matrix(0.99928359,-0.03784591,0.03784591,0.99928359,-855.08483,-523.74461)" />
          <path
             style="fill:none;fill-rule:evenodd;stroke:#000000;stroke-width:7;stroke-linecap:round;stroke-linejoin:miter;stroke-miterlimit:4;stroke-dasharray:none;stroke-opacity:1"
             d="m 2123.3568,980.09418 c 0,0 17.6776,-14.64718 27.2741,-18.68779"
             id="path3456"
             inkscape:connector-curvature="0"
             transform="matrix(0.99928359,-0.03784591,0.03784591,0.99928359,-855.08483,-523.74461)" />
          <path
             style="fill:none;fill-rule:evenodd;stroke:#000000;stroke-width:7;stroke-linecap:round;stroke-linejoin:round;stroke-miterlimit:4;stroke-dasharray:none;stroke-opacity:1"
             d="m 2118.4895,1012.005 c 0,0 16.9643,6.9643 26.0715,6.9643 9.1071,0 28.2142,-9.2857 31.7857,-9.8215 3.5714,-0.5357 36.4285,-11.07136 37.1428,-11.07136 0.7143,0 9.8215,-6.7857 6.7857,1.96426 -3.0357,8.75 -17.8571,30.7143 -32.1428,36.25 -14.2857,5.5357 -30.7143,7.6786 -35.1786,4.1071 -4.4643,-3.5714 -18.3928,-14.2857 -20.1786,-16.4285 -1.7857,-2.1429 -6.7857,-7.5 -8.5714,-8.9286 -1.7857,-1.4286 -5.7143,-3.0357 -5.7143,-3.0357 z"
             id="path3458"
             inkscape:connector-curvature="0"
             transform="matrix(0.99928359,-0.03784591,0.03784591,0.99928359,-855.08483,-523.74461)" />
          <path
             inkscape:connector-curvature="0"
             id="path3460"
             d="m 1841.9141,1201.3926 c -28.0057,0.8678 -51.1548,18.2223 -66.0957,35.0527 -13.9004,15.6584 -15.3871,39.1163 -9.086,60.3574 6.3011,21.2412 20.7475,41.2255 42.1621,49.6133 78.4652,30.7336 114.6316,41.9053 223.3184,48.7266 113.3851,7.1162 225.5525,-12.6213 278.0644,-32.0528 12.1659,-4.5018 31.7817,-11.9168 49.3457,-24.6367 17.5641,-12.7199 33.4204,-31.3569 36.1036,-57.3418 1.672,-16.1924 -2.5664,-29.7499 -9.877,-40.0586 -7.3106,-10.3087 -17.3917,-17.4455 -27.3574,-22.5 -19.9313,-10.1089 -40.2539,-12.2187 -40.2539,-12.2187 l -1.6192,14.9121 c 0,0 18.1004,2.0667 35.0899,10.6836 8.4947,4.3084 16.4983,10.173 21.9062,17.7988 5.408,7.6258 8.5222,16.9367 7.1895,29.8438 -2.145,20.7728 -14.4974,35.5209 -29.9785,46.7324 -15.4812,11.2114 -33.7472,18.2731 -45.7559,22.7168 -49.0018,18.1325 -160.9158,38.117 -271.918,31.1504 -107.8983,-6.7718 -140.6041,-17.0996 -218.7871,-47.7227 -15.8648,-6.214 -28.0205,-22.277 -33.2519,-39.9121 -5.2314,-17.6351 -3.1808,-35.8808 5.9219,-46.1348 15.1144,-17.0258 38.5611,-33.2563 65.0468,-29.4726 l 2.1211,-14.8496 c -4.1893,-0.5985 -8.2882,-0.8115 -12.289,-0.6875 z"
             style="color:#000000;font-style:normal;font-variant:normal;font-weight:normal;font-stretch:normal;font-size:medium;line-height:normal;font-family:sans-serif;text-indent:0;text-align:start;text-decoration:none;text-decoration-line:none;text-decoration-style:solid;text-decoration-color:#000000;letter-spacing:normal;word-spacing:normal;text-transform:none;direction:ltr;block-progression:tb;writing-mode:lr-tb;baseline-shift:baseline;text-anchor:start;white-space:normal;clip-rule:nonzero;display:inline;overflow:visible;visibility:visible;opacity:1;isolation:auto;mix-blend-mode:normal;color-interpolation:sRGB;color-interpolation-filters:linearRGB;solid-color:#000000;solid-opacity:1;fill:#000000;fill-opacity:1;fill-rule:evenodd;stroke:none;stroke-width:15;stroke-linecap:butt;stroke-linejoin:miter;stroke-miterlimit:4;stroke-dasharray:none;stroke-dashoffset:0;stroke-opacity:1;color-rendering:auto;image-rendering:auto;shape-rendering:auto;text-rendering:auto;enable-background:accumulate"
             transform="matrix(0.99928359,-0.03784591,0.03784591,0.99928359,-855.08483,-523.74461)" />
          <path
             style="fill:none;fill-rule:evenodd;stroke:#000000;stroke-width:15;stroke-linecap:butt;stroke-linejoin:miter;stroke-miterlimit:4;stroke-dasharray:none;stroke-opacity:1"
             d="m 1953.7119,1199.6798 c 0,0 26.6824,-5.52 72.1392,-0.4692"
             id="path3462"
             inkscape:connector-curvature="0"
             sodipodi:nodetypes="cc"
             transform="matrix(0.99928359,-0.03784591,0.03784591,0.99928359,-855.08483,-523.74461)" />
          <path
             id="path3481"
             style="font-style:normal;font-variant:normal;font-weight:500;font-stretch:normal;font-size:50px;line-height:125%;font-family:Futura;-inkscape-font-specification:'Futura, Medium';text-align:start;writing-mode:lr-tb;text-anchor:start"
             d="m 1039.2116,715.40705 14.7413,5.03099 -0.4021,1.17838 q -1.3721,4.02036 -3.3761,6.79319 -1.902,2.54966 -4.9487,4.29592 -6.876,3.89614 -14.547,1.27814 -7.4862,-2.55493 -10.9784,-9.78318 -3.4842,-7.25136 -0.8899,-14.85307 2.6496,-7.76345 9.9246,-11.31703 7.2829,-3.57669 15.0695,-0.91925 4.182,1.42728 7.2261,4.37512 2.8823,2.89264 4.9236,7.87156 l -5.0893,2.36478 q -2.395,-7.34395 -8.7028,-9.49671 -5.6609,-1.93196 -10.8291,0.66387 -5.1445,2.52651 -7.1159,8.30288 -2.0345,5.96122 0.9232,11.27867 2.775,4.94556 7.4423,6.53844 3.9741,1.35632 8.0543,-0.2436 4.0881,-1.62302 5.7431,-5.26305 l -8.8956,-3.03594 1.7269,-5.06011 z"
             inkscape:connector-curvature="0" />
          <path
             id="path3483"
             style="font-style:normal;font-variant:normal;font-weight:500;font-stretch:normal;font-size:45px;line-height:125%;font-family:Futura;-inkscape-font-specification:'Futura, Medium';text-align:start;writing-mode:lr-tb;text-anchor:start"
             d="m 1068.2408,706.17324 -10.3202,35.64801 -4.7489,-1.3748 10.3202,-35.64802 4.7489,1.37481 z"
             inkscape:connector-curvature="0" />
          <path
             id="path3485"
             style="font-style:normal;font-variant:normal;font-weight:500;font-stretch:normal;font-size:45px;line-height:125%;font-family:Futura;-inkscape-font-specification:'Futura, Medium';text-align:start;writing-mode:lr-tb;text-anchor:start"
             d="m 1065.4653,732.80707 q 1.0946,-4.50517 5.0865,-6.88185 3.9918,-2.37669 8.6251,-1.25097 4.6546,1.1309 7.1271,5.1008 2.4298,3.95952 1.304,8.59279 -1.1361,4.67597 -5.1279,7.05266 -4.008,2.35015 -8.7267,1.20368 -4.676,-1.13609 -7.0578,-5.10659 -2.3923,-3.92779 -1.2303,-8.71052 z m 4.8901,1.27856 q -0.7574,3.11732 0.4671,5.33683 1.262,2.25124 4.059,2.93082 2.8184,0.68477 4.9461,-0.72028 2.1278,-1.40506 2.8644,-4.43697 0.7367,-3.03191 -0.5092,-5.25661 -1.2619,-2.25124 -4.059,-2.93082 -2.7543,-0.6692 -4.9086,0.75201 -2.1542,1.42122 -2.8598,4.32502 z"
             inkscape:connector-curvature="0" />
          <path
             id="path3487"
             style="font-style:normal;font-variant:normal;font-weight:500;font-stretch:normal;font-size:45px;line-height:125%;font-family:Futura;-inkscape-font-specification:'Futura, Medium';text-align:start;writing-mode:lr-tb;text-anchor:start"
             d="m 1101.6927,714.13182 -3.2282,17.90465 q 3.465,-2.50101 7.1627,-1.8343 4.26,0.76809 6.5196,4.45757 2.2635,3.66785 1.4135,8.38188 -0.8772,4.86539 -4.3047,7.52946 -3.402,2.64635 -7.7268,1.86657 -3.6545,-0.65892 -6.0236,-3.98859 l -0.3977,2.20565 -4.8654,-0.87725 6.5852,-36.52289 4.8654,0.87725 z m 6.8551,28.22929 q 0.5458,-3.02736 -0.7545,-5.22658 -1.3141,-2.24637 -3.8225,-2.69865 -2.6814,-0.48346 -4.7072,1.09371 -2.0004,1.55945 -2.5384,4.54356 -0.5537,3.0706 0.7583,5.20496 1.3042,2.1776 3.9856,2.66106 2.53,0.45617 4.5343,-1.1249 2.0297,-1.59879 2.5444,-4.45316 z"
             inkscape:connector-curvature="0" />
          <path
             id="path3489"
             style="font-style:normal;font-variant:normal;font-weight:500;font-stretch:normal;font-size:45px;line-height:125%;font-family:Futura;-inkscape-font-specification:'Futura, Medium';text-align:start;writing-mode:lr-tb;text-anchor:start"
             d="m 1135.2536,735.1988 4.9237,0.64515 -2.7804,21.21998 -4.9238,-0.64514 0.2912,-2.22222 q -3.3994,2.43544 -6.8852,1.9787 -4.4009,-0.57663 -6.8599,-4.13426 -2.4287,-3.62014 -1.7921,-8.47851 0.6251,-4.77123 3.8959,-7.57809 3.2708,-2.80687 7.5628,-2.2445 3.7037,0.48528 6.2452,3.92076 l 0.3226,-2.46187 z m -13.0156,9.02026 q -0.3997,3.0501 0.9831,5.18141 1.4235,2.1588 3.9725,2.49279 2.7233,0.35683 4.6464,-1.297 1.9316,-1.71919 2.3227,-4.70393 0.391,-2.98474 -1.0325,-5.14354 -1.4292,-2.11522 -4.1089,-2.46634 -2.5272,-0.33114 -4.4778,1.3634 -1.9316,1.71919 -2.3055,4.57321 z"
             inkscape:connector-curvature="0" />
          <path
             id="path3491"
             style="font-style:normal;font-variant:normal;font-weight:500;font-stretch:normal;font-size:45px;line-height:125%;font-family:Futura;-inkscape-font-specification:'Futura, Medium';text-align:start;writing-mode:lr-tb;text-anchor:start"
             d="m 1152.4865,721.29485 -3.8763,36.90882 -4.9168,-0.51638 3.8763,-36.90882 4.9168,0.51638 z"
             inkscape:connector-curvature="0" />
          <path
             id="path3493"
             style="font-style:normal;font-variant:normal;font-weight:500;font-stretch:normal;font-size:50px;line-height:125%;font-family:Futura;-inkscape-font-specification:'Futura, Medium';text-align:start;writing-mode:lr-tb;text-anchor:start"
             d="m 1178.5986,723.02728 -2.491,32.25258 11.0511,0.85352 -0.4117,5.33081 -16.7227,-1.29156 2.9027,-37.58339 5.6716,0.43804 z"
             inkscape:connector-curvature="0" />
          <path
             id="path3495"
             style="font-style:normal;font-variant:normal;font-weight:500;font-stretch:normal;font-size:45px;line-height:125%;font-family:Futura;-inkscape-font-specification:'Futura, Medium';text-align:start;writing-mode:lr-tb;text-anchor:start"
             d="m 1210.7627,753.40654 -15.3089,-0.92655 q 0.038,2.64385 1.4572,4.29265 1.4204,1.62687 3.7891,1.77024 1.8424,0.1115 3.1018,-0.69279 1.2374,-0.80562 2.8941,-3.08274 l 4.0265,2.57706 q -1.0646,1.58653 -2.211,2.70584 -1.145,1.09738 -2.4197,1.79069 -1.2734,0.67136 -2.7202,0.936 -1.4469,0.26464 -3.1137,0.16375 -4.7813,-0.28938 -7.4906,-3.53515 -2.7079,-3.26771 -2.3986,-8.37799 0.3066,-5.06641 3.3038,-8.03285 3.0165,-2.92124 7.6881,-2.6385 4.7155,0.2854 7.2752,3.45608 2.5391,3.14743 2.2192,8.43317 l -0.092,1.16109 z m -4.8222,-4.34222 q -0.7918,-4.01024 -4.7397,-4.24918 -0.8992,-0.0544 -1.7061,0.18291 -0.8055,0.2154 -1.4953,0.70196 -0.6666,0.46595 -1.171,1.16185 -0.5043,0.6959 -0.8014,1.60246 l 9.9135,0.6 z"
             inkscape:connector-curvature="0" />
          <path
             id="path3497"
             style="font-style:normal;font-variant:normal;font-weight:500;font-stretch:normal;font-size:45px;line-height:125%;font-family:Futura;-inkscape-font-specification:'Futura, Medium';text-align:start;writing-mode:lr-tb;text-anchor:start"
             d="m 1231.9414,742.24961 4.9639,0.13963 -0.6017,21.3929 -4.9639,-0.13962 0.063,-2.24032 q -3.1333,2.76944 -6.6475,2.67059 -4.4368,-0.1248 -7.2458,-3.41309 -2.7852,-3.35356 -2.6474,-8.25153 0.1352,-4.81011 3.1027,-7.93592 2.9675,-3.1258 7.2944,-3.00409 3.7339,0.10502 6.6125,3.26338 l 0.07,-2.48193 z m -12.0277,10.30066 q -0.087,3.07495 1.5064,5.05412 1.6362,2.00236 4.206,2.07464 2.7455,0.0772 4.4899,-1.7641 1.7462,-1.90722 1.8308,-4.91629 0.085,-3.00906 -1.5516,-5.01142 -1.6374,-1.95844 -4.339,-2.03443 -2.5478,-0.0717 -4.3154,1.81297 -1.7462,1.90723 -1.8271,4.78451 z"
             inkscape:connector-curvature="0" />
          <path
             id="path3499"
             style="font-style:normal;font-variant:normal;font-weight:500;font-stretch:normal;font-size:45px;line-height:125%;font-family:Futura;-inkscape-font-specification:'Futura, Medium';text-align:start;writing-mode:lr-tb;text-anchor:start"
             d="m 1242.6248,742.39699 4.9438,-0.002 8e-4,1.91162 q 1.3617,-1.42875 2.4162,-1.9565 1.0765,-0.54973 2.5486,-0.5503 1.9556,-7.6e-4 4.0874,1.27283 l -2.2614,4.52725 q -1.4066,-1.0102 -2.747,-1.00969 -4.0429,0.002 -4.0406,6.10996 l 0,11.0962 -4.9438,0.002 -0.01,-21.40137 z"
             inkscape:connector-curvature="0" />
          <path
             id="path3501"
             style="font-style:normal;font-variant:normal;font-weight:500;font-stretch:normal;font-size:45px;line-height:125%;font-family:Futura;-inkscape-font-specification:'Futura, Medium';text-align:start;writing-mode:lr-tb;text-anchor:start"
             d="m 1259.5675,742.36089 4.9641,-0.12917 0.052,1.97687 q 2.525,-2.63738 5.7758,-2.72197 3.7341,-0.0972 5.882,2.19881 1.8531,1.95197 1.9709,6.4768 l 0.3412,13.11324 -4.9641,0.12917 -0.311,-11.94908 q -0.082,-3.16299 -0.9923,-4.34821 -0.8887,-1.20776 -3.1511,-1.14889 -2.4601,0.064 -3.4502,1.71631 -0.9686,1.62975 -0.8646,5.62742 l 0.2686,10.32365 -4.9641,0.12918 -0.5567,-21.39413 z"
             inkscape:connector-curvature="0" />
          <path
             id="path3503"
             style="font-style:normal;font-variant:normal;font-weight:500;font-stretch:normal;font-size:45px;line-height:125%;font-family:Futura;-inkscape-font-specification:'Futura, Medium';text-align:start;writing-mode:lr-tb;text-anchor:start"
             d="m 1288.7388,741.36336 1.0083,21.3776 -4.9383,0.23294 -1.0084,-21.3776 4.9384,-0.23294 z m -6.1039,-8.6209 q -0.061,-1.29495 0.8382,-2.28324 0.8992,-0.98829 2.2161,-1.05041 1.3389,-0.0632 2.3271,0.8361 0.9873,0.87731 1.0505,2.21616 0.063,1.33884 -0.8362,2.32713 -0.8773,0.98726 -2.2161,1.05041 -1.3388,0.0631 -2.3271,-0.8361 -0.9883,-0.89926 -1.0525,-2.26005 z"
             inkscape:connector-curvature="0" />
          <path
             id="path3505"
             style="font-style:normal;font-variant:normal;font-weight:500;font-stretch:normal;font-size:45px;line-height:125%;font-family:Futura;-inkscape-font-specification:'Futura, Medium';text-align:start;writing-mode:lr-tb;text-anchor:start"
             d="m 1294.5108,741.10038 4.9544,-0.33617 0.1339,1.973 q 2.4128,-2.74043 5.6573,-2.96058 3.7268,-0.25288 5.9685,1.95149 1.933,1.87295 2.2395,6.38893 l 0.888,13.08759 -4.9544,0.33617 -0.8092,-11.9257 q -0.2142,-3.1568 -1.1729,-4.30303 -0.9383,-1.16963 -3.1963,-1.01642 -2.4553,0.1666 -3.3756,1.85876 -0.8998,1.66875 -0.6291,5.6586 l 0.6992,10.30346 -4.9545,0.33617 -1.4488,-21.35227 z"
             inkscape:connector-curvature="0" />
          <path
             id="path3507"
             style="font-style:normal;font-variant:normal;font-weight:500;font-stretch:normal;font-size:45px;line-height:125%;font-family:Futura;-inkscape-font-specification:'Futura, Medium';text-align:start;writing-mode:lr-tb;text-anchor:start"
             d="m 1341.147,758.19447 q 0.1471,1.50896 0.1486,2.65681 0.025,1.16758 -0.064,2.05939 -0.2904,2.45676 -1.6528,4.33363 -2.5627,3.60547 -7.6144,4.0979 -4.2645,0.41569 -7.2438,-1.61196 -3.0732,-2.08473 -3.9178,-6.21908 l 4.9424,-0.48177 q 0.4378,1.54686 1.177,2.3358 1.7248,1.84086 4.6553,1.55521 5.4016,-0.52654 4.7557,-7.15285 l -0.2899,-2.97418 q -2.6384,3.2817 -6.4655,3.65476 -4.3519,0.42421 -7.4362,-2.4542 -3.1105,-2.92001 -3.5773,-7.70933 -0.4541,-4.6581 1.8307,-8.17025 2.4624,-3.72816 7.0549,-4.17583 4.0239,-0.39223 6.984,2.34375 l -0.2345,-2.40559 4.9205,-0.47964 2.0273,20.79743 z m -5.7086,-9.64303 q -0.3027,-3.1054 -2.1459,-4.80225 -1.8694,-1.73847 -4.4937,-1.48266 -2.7992,0.27286 -4.215,2.50816 -1.284,2.00169 -0.9963,4.95401 0.2836,2.90858 1.93,4.62462 1.7947,1.8782 4.6158,1.60321 2.8211,-0.27499 4.2609,-2.49056 1.3277,-2.00595 1.0442,-4.91453 z"
             inkscape:connector-curvature="0" />
          <path
             id="path3509"
             style="font-style:normal;font-variant:normal;font-weight:500;font-stretch:normal;font-size:50px;line-height:125%;font-family:Futura;-inkscape-font-specification:'Futura, Medium';text-align:start;writing-mode:lr-tb;text-anchor:start"
             d="m 1384.8347,716.70192 1.0057,6.6628 q -5.4922,-3.34366 -10.7066,-2.55655 -5.7454,0.86727 -9.0572,5.58929 -3.3396,4.70152 -2.4432,10.6401 0.8855,5.86616 5.4532,9.30002 4.5676,3.43385 10.313,2.56658 2.9693,-0.44822 4.8996,-1.72723 1.0859,-0.65772 2.1932,-1.66435 1.1314,-1.01027 2.3325,-2.37672 l 1.024,6.7835 q -4.4164,3.45669 -9.7273,4.25837 -7.9905,1.20618 -14.4812,-3.5176 -6.4738,-4.77569 -7.6727,-12.71794 -1.075,-7.12147 2.7907,-13.40853 4.7624,-7.70635 13.96,-9.09473 5.0212,-0.75795 10.1163,1.26299 z"
             inkscape:connector-curvature="0" />
          <path
             id="path3511"
             style="font-style:normal;font-variant:normal;font-weight:500;font-stretch:normal;font-size:45px;line-height:125%;font-family:Futura;-inkscape-font-specification:'Futura, Medium';text-align:start;writing-mode:lr-tb;text-anchor:start"
             d="m 1392.8242,740.45448 q -0.8775,-4.55243 1.7649,-8.37357 2.6424,-3.82115 7.3243,-4.7236 4.7035,-0.9066 8.6026,1.67602 3.856,2.59093 4.7584,7.27282 0.9108,4.72503 -1.7316,8.54618 -2.6682,3.80373 -7.4363,4.72281 -4.7251,0.91077 -8.5421,-1.71006 -3.8086,-2.57768 -4.7402,-7.4106 z m 4.979,-0.87021 q 0.6072,3.15003 2.6436,4.65956 2.0837,1.5228 4.91,0.978 2.848,-0.54895 4.199,-2.71141 1.351,-2.16246 0.7604,-5.22618 -0.5905,-3.06372 -2.6485,-4.5691 -2.0837,-1.5228 -4.9101,-0.978 -2.7832,0.53648 -4.1516,2.72467 -1.3684,2.1882 -0.8028,5.12246 z"
             inkscape:connector-curvature="0" />
          <path
             id="path3513"
             style="font-style:normal;font-variant:normal;font-weight:500;font-stretch:normal;font-size:45px;line-height:125%;font-family:Futura;-inkscape-font-specification:'Futura, Medium';text-align:start;writing-mode:lr-tb;text-anchor:start"
             d="m 1417.3375,725.02866 4.7999,-1.18404 0.4736,1.91999 q 1.0289,-1.79271 1.8839,-2.54678 0.9138,-0.79119 2.4924,-1.1806 3.52,-0.8683 6.3258,1.6985 1.5035,-3.6298 5.3648,-4.58229 7.0186,-1.73132 9.1183,6.78062 l 3.168,12.84258 -4.8213,1.1893 -2.847,-11.54126 q -0.7367,-2.98664 -1.7673,-4.04505 -1.0571,-1.07447 -2.7638,-0.65348 -1.9839,0.4894 -2.5329,2.20901 -0.5276,1.71434 0.288,5.02098 l 2.647,10.7306 -4.8213,1.1893 -2.8311,-11.47726 q -1.3683,-5.54663 -4.5682,-4.75727 -2.0267,0.49993 -2.5917,2.24613 -0.5437,1.74094 0.2614,5.00491 l 2.647,10.7306 -4.8,1.18403 -5.1255,-20.77852 z"
             inkscape:connector-curvature="0" />
          <path
             id="path3515"
             style="font-style:normal;font-variant:normal;font-weight:500;font-stretch:normal;font-size:45px;line-height:125%;font-family:Futura;-inkscape-font-specification:'Futura, Medium';text-align:start;writing-mode:lr-tb;text-anchor:start"
             d="m 1450.0331,716.97493 4.6727,-1.61486 0.6459,1.86907 q 0.8619,-1.87871 1.6449,-2.70727 0.8382,-0.87087 2.375,-1.40198 3.4266,-1.18423 6.4538,1.11727 1.1678,-3.75128 4.9267,-5.05035 6.8325,-2.36128 9.6962,5.92492 l 4.3207,12.50199 -4.6935,1.62204 -3.8828,-11.23518 q -1.0048,-2.90744 -2.1272,-3.86793 -1.1503,-0.97408 -2.8117,-0.3999 -1.9314,0.66747 -2.322,2.42981 -0.3698,1.75516 0.7427,4.97411 l 3.6101,10.44602 -4.6935,1.62204 -3.8613,-11.17288 q -1.866,-5.39953 -4.9811,-4.32296 -1.973,0.68183 -2.3771,2.47211 -0.3835,1.78311 0.7146,4.96053 l 3.6102,10.44601 -4.6727,1.61486 -6.9906,-20.22747 z"
             inkscape:connector-curvature="0" />
          <path
             id="path3517"
             style="font-style:normal;font-variant:normal;font-weight:500;font-stretch:normal;font-size:45px;line-height:125%;font-family:Futura;-inkscape-font-specification:'Futura, Medium';text-align:start;writing-mode:lr-tb;text-anchor:start"
             d="m 1484.904,715.85708 q -2.0203,-4.17292 -0.451,-8.54566 1.5693,-4.37274 5.8609,-6.45042 4.3113,-2.08726 8.744,-0.59584 4.3932,1.51057 6.4709,5.80215 2.0968,4.33114 0.5275,8.70388 -1.5986,4.36254 -5.9693,6.47852 -4.3311,2.09683 -8.6943,0.54733 -4.344,-1.50994 -6.4887,-5.93996 z m 4.587,-2.12304 q 1.3978,2.88742 3.7543,3.82164 2.4055,0.93485 4.9963,-0.31942 2.6106,-1.26385 3.3591,-3.70127 0.7485,-2.43743 -0.6111,-5.24575 -1.3595,-2.80832 -3.7358,-3.73296 -2.4055,-0.93485 -4.9963,0.31942 -2.5512,1.23512 -3.31,3.7019 -0.7587,2.46678 0.5435,5.15644 z"
             inkscape:connector-curvature="0" />
          <path
             id="path3519"
             style="font-style:normal;font-variant:normal;font-weight:500;font-stretch:normal;font-size:45px;line-height:125%;font-family:Futura;-inkscape-font-specification:'Futura, Medium';text-align:start;writing-mode:lr-tb;text-anchor:start"
             d="m 1502.3028,695.64449 4.0357,-2.8936 1.1523,1.60712 q 0.6091,-3.60007 3.2519,-5.49499 3.0357,-2.17661 6.102,-1.48226 2.6294,0.57508 5.2669,4.25359 l 7.6438,10.66054 -4.0357,2.8936 -6.9651,-9.71412 q -1.8437,-2.57139 -3.2622,-3.04137 -1.4134,-0.50065 -3.2527,0.81811 -1.9999,1.434 -1.8917,3.35717 0.1132,1.89252 2.4434,5.14246 l 6.0177,8.39272 -4.0356,2.8936 -12.4707,-17.39257 z"
             inkscape:connector-curvature="0" />
          <path
             id="path3521"
             style="font-style:normal;font-variant:normal;font-weight:500;font-stretch:normal;font-size:45px;line-height:125%;font-family:Futura;-inkscape-font-specification:'Futura, Medium';text-align:start;writing-mode:lr-tb;text-anchor:start"
             d="m 1529.5266,676.86829 -1.1237,4.49134 q -2.1158,-0.6074 -3.0728,0.45279 -0.4564,0.50563 -0.4378,1.17364 0,0.65329 0.5243,1.12442 0.9134,0.82448 3.7244,-0.48613 3.8913,-1.78594 5.8643,-1.84021 1.973,-0.0543 3.7672,1.56525 2.2998,2.07592 2.3181,5.17089 -0.019,2.97243 -2.1244,5.30484 -3.6071,3.99609 -9.0071,2.14101 l 1.3752,-4.44197 q 1.7306,0.37818 2.3497,0.31539 1.2235,-0.10926 2.0627,-1.03897 1.6784,-1.8594 -0.018,-3.39058 -0.9787,-0.88337 -3.1224,-0.21363 -0.7779,0.30427 -1.5394,0.62327 -0.7616,0.31899 -1.5542,0.63957 -2.2257,0.89174 -3.5975,0.83747 -1.7458,-0.0663 -3.3117,-1.47965 -2.0714,-1.8698 -2.1443,-4.51082 -0.043,-2.67364 1.8264,-4.74508 2.7531,-3.05008 7.2409,-1.69284 z"
             inkscape:connector-curvature="0" />
        </g>
      </g>
    </g>
  </g>
</svg>
